<?xml version="1.0" standalone="no"?>
<!DOCTYPE svg PUBLIC "-//W3C//DTD SVG 20010904//EN"
 "http://www.w3.org/TR/2001/REC-SVG-20010904/DTD/svg10.dtd">
<svg version="1.0" xmlns="http://www.w3.org/2000/svg"
 width="500.000000pt" height="500.000000pt" viewBox="0 0 500.000000 500.000000"
 preserveAspectRatio="xMidYMid meet">

<g transform="translate(0.000000,500.000000) scale(0.100000,-0.100000)"
fill="#000000" stroke="none">
<path d="M2899 4128 c0 -84 0 -171 0 -193 l1 -40 -21 39 c-12 22 -27 46 -34
53 -7 7 -21 34 -31 60 -9 27 -22 53 -27 58 -13 14 0 -27 29 -94 28 -63 29 -68
9 -51 -23 19 -18 -1 7 -27 21 -23 51 -93 39 -93 -3 0 -15 7 -25 15 -34 26
-103 269 -93 329 3 20 -1 39 -10 51 -14 18 -15 15 -10 -45 4 -36 15 -99 26
-140 11 -41 21 -78 21 -83 0 -4 -35 15 -77 41 -113 71 -264 155 -269 150 -2
-3 40 -43 93 -91 115 -101 191 -177 177 -177 -33 0 -217 132 -342 244 -40 36
-75 66 -79 66 -12 0 8 -124 32 -196 14 -41 25 -77 25 -79 0 -3 -36 -5 -79 -5
l-79 0 -85 93 c-47 50 -95 103 -107 117 l-21 25 5 -33 c3 -17 30 -86 61 -151
30 -66 55 -123 55 -127 0 -13 -145 5 -215 27 -86 26 -127 49 -187 108 -28 26
-48 39 -48 31 0 -26 60 -143 95 -186 19 -23 32 -44 29 -46 -2 -3 11 -16 31
-29 19 -13 35 -27 35 -31 0 -5 -72 -8 -161 -8 -157 0 -162 1 -236 31 -41 18
-97 47 -124 65 -27 18 -49 29 -49 24 0 -18 135 -153 185 -184 51 -32 137 -70
188 -82 15 -3 27 -10 25 -14 -2 -4 -39 -36 -83 -70 -44 -35 -110 -92 -147
-126 -43 -42 -74 -64 -90 -64 -26 0 -119 15 -162 26 -22 5 -27 4 -21 -5 9 -15
162 -91 184 -91 9 -1 27 -7 40 -14 l24 -13 -27 -19 c-58 -41 -69 -55 -22 -29
27 15 47 23 45 19 -25 -58 -59 -96 -102 -114 -83 -36 -268 -80 -337 -80 -89
-1 -62 -15 109 -56 73 -18 135 -35 138 -37 2 -3 -32 -29 -76 -58 -44 -29 -79
-55 -77 -57 6 -5 71 38 140 92 54 42 64 46 114 46 l55 0 -19 -22 c-31 -35
-273 -136 -294 -123 -5 3 -30 -4 -57 -15 l-48 -21 46 5 c25 3 83 17 130 33 46
15 98 28 114 30 29 3 27 0 -36 -62 -37 -36 -64 -65 -60 -65 4 0 20 14 37 31
16 17 38 36 49 42 19 10 6 -9 -82 -116 -13 -16 -20 -34 -17 -39 4 -6 3 -8 -3
-5 -5 3 -29 -14 -53 -38 -24 -25 -39 -45 -32 -45 15 0 143 77 174 104 13 12
19 18 14 14 -6 -5 -15 -8 -20 -8 -11 0 27 36 107 101 42 35 52 20 10 -16 -16
-13 -39 -34 -53 -45 l-25 -22 33 22 c26 17 32 18 32 6 0 -8 -4 -17 -9 -20 -4
-3 -18 -37 -30 -76 -18 -57 -28 -73 -52 -85 -22 -12 -32 -27 -42 -62 -10 -39
-21 -52 -72 -88 -33 -24 -85 -56 -115 -72 l-55 -30 -21 -104 c-12 -57 -29
-139 -38 -182 -16 -74 -15 -81 3 -155 11 -42 38 -133 60 -202 31 -101 40 -145
44 -230 3 -66 13 -130 27 -173 12 -38 20 -73 18 -78 -2 -5 -64 -37 -138 -70
-699 -315 -806 -381 -863 -526 -26 -67 -27 -74 -27 -281 l0 -212 1395 0 1395
0 -26 52 -26 52 21 17 c20 17 31 56 12 44 -15 -9 -24 34 -10 51 6 8 9 17 6 21
-4 3 -9 -2 -13 -11 -3 -9 -12 -16 -19 -16 -8 0 -16 -8 -19 -17 -4 -15 -5 -14
-4 2 1 11 -2 28 -7 38 -4 10 -4 42 0 70 5 29 7 100 6 158 l-3 107 35 11 c44
15 81 6 95 -22 6 -12 18 -52 26 -88 8 -36 24 -87 36 -115 22 -53 21 -34 -3 61
-8 33 -18 78 -22 99 -4 26 -19 52 -41 74 -22 22 -36 47 -40 73 -8 51 0 49 27
-4 27 -52 23 -49 42 -41 15 5 15 9 2 34 -8 16 -24 54 -36 86 -21 55 -21 58 -4
70 24 18 93 26 130 16 26 -7 38 -23 87 -125 31 -64 61 -117 66 -117 5 0 26
-37 47 -82 21 -45 40 -77 42 -71 5 14 -65 154 -83 168 -12 10 -78 137 -104
203 -24 60 -1 45 32 -22 18 -36 35 -66 39 -66 4 0 -6 25 -23 56 -17 30 -28 57
-25 60 2 3 18 -21 34 -53 54 -107 68 -53 17 68 -28 65 -30 78 -17 83 18 7 33
-1 33 -17 0 -19 54 -150 57 -140 2 5 -8 40 -22 76 -14 37 -25 72 -25 77 0 18
65 -2 91 -29 15 -14 48 -75 75 -136 26 -60 70 -142 96 -181 37 -56 48 -80 48
-111 0 -46 17 -103 31 -103 5 0 3 13 -6 30 -8 16 -15 49 -15 73 0 31 -9 57
-32 93 -31 48 -31 51 -29 164 2 114 2 115 -28 155 -23 30 -31 51 -31 85 -1 37
-3 42 -11 27 -6 -10 -9 -37 -7 -60 3 -24 -2 -57 -10 -77 l-15 -35 -14 40 c-17
48 -12 81 25 160 24 50 37 65 79 87 47 26 63 27 63 6 0 -5 -4 -6 -10 -3 -20
12 -9 -11 40 -87 47 -75 67 -97 53 -61 -4 11 -3 14 5 9 19 -12 15 -1 -33 80
-51 85 -54 95 -23 68 11 -10 37 -53 56 -94 19 -41 50 -94 69 -118 20 -24 34
-44 32 -46 -11 -8 -75 -26 -95 -26 -13 0 -24 -5 -24 -10 0 -11 28 -6 93 15 49
17 53 8 32 -71 -9 -32 -19 -111 -22 -175 -5 -98 -3 -121 11 -140 21 -31 20
-59 -4 -144 -24 -80 -34 -175 -20 -175 6 0 10 8 10 18 0 9 7 35 15 57 l14 40
0 -35 c1 -19 -10 -74 -23 -123 l-23 -87 713 0 714 0 0 60 c0 99 -94 344 -153
398 -30 27 -194 121 -346 197 -181 90 -697 393 -713 419 -4 6 -8 45 -8 87 0
71 -2 77 -30 104 -47 45 -43 101 20 229 27 56 50 107 50 112 0 6 -53 55 -117
110 -186 157 -313 275 -313 291 0 8 17 37 38 66 72 98 92 135 92 175 0 21 3
42 7 46 4 3 34 -22 67 -56 75 -78 166 -154 166 -139 0 6 -16 44 -36 84 -40 78
-97 237 -86 237 4 0 43 -29 87 -65 112 -91 117 -89 51 24 -39 67 -62 130 -136
374 -5 15 -7 27 -5 27 1 0 51 -61 109 -135 114 -144 146 -176 103 -103 -37 64
-157 298 -157 308 0 4 63 -24 141 -62 77 -39 142 -68 144 -66 3 2 -39 51 -91
109 -106 115 -194 227 -194 246 0 7 8 10 18 8 9 -3 -16 11 -57 30 -41 20 -87
45 -102 56 -29 20 -40 14 -17 -9 7 -7 9 -12 5 -12 -4 0 -28 32 -53 70 -26 39
-49 68 -52 66 -5 -5 69 -118 99 -151 10 -11 22 -32 28 -46 5 -14 29 -41 53
-59 33 -26 38 -28 23 -9 -22 25 -50 97 -42 105 13 14 75 -32 96 -71 13 -24 74
-101 136 -172 62 -70 111 -129 110 -131 -5 -6 -155 67 -211 103 -131 83 -258
227 -309 348 -8 21 -18 37 -21 37 -3 0 -3 -8 1 -17 4 -10 8 -38 9 -63 1 -25
19 -85 39 -135 34 -82 37 -98 37 -185 0 -78 5 -113 30 -190 29 -96 33 -131 7
-67 -13 29 -24 63 -61 177 -3 9 -5 6 -5 -8 -1 -12 11 -55 25 -95 14 -39 29
-84 34 -98 10 -34 98 -186 120 -207 9 -10 23 -33 30 -52 7 -19 29 -66 47 -104
19 -37 32 -70 30 -72 -7 -7 -167 146 -167 159 0 6 20 -9 45 -33 57 -56 59 -48
2 11 -23 24 -50 60 -59 79 -10 19 -18 28 -18 19 0 -8 7 -24 15 -35 20 -26 19
-42 -1 -22 -12 12 -18 40 -21 98 -3 58 -12 100 -32 148 -15 37 -36 94 -45 127
-34 112 -36 114 -31 25 3 -47 7 -103 10 -125 5 -31 1 -46 -15 -65 l-21 -25 3
52 c1 29 -1 55 -3 58 -10 10 -29 -184 -29 -298 0 -99 -2 -116 -19 -131 -21
-19 -21 -31 0 174 6 58 13 155 15 215 5 125 33 285 62 363 14 36 16 52 8 52
-7 0 -24 47 -40 112 -16 62 -31 120 -33 128 -3 8 4 4 16 -10 41 -50 19 -6 -66
133 -49 79 -99 166 -113 195 -14 28 -28 51 -33 52 -9 0 37 -93 86 -174 19 -32
33 -65 30 -75 -6 -23 73 -338 83 -329 2 2 -15 76 -36 163 -22 88 -40 164 -40
170 0 5 10 -6 22 -25 11 -19 41 -109 65 -200 40 -150 43 -169 32 -205 -31
-105 -48 -214 -60 -385 -6 -80 -14 -190 -18 -245 l-8 -100 -1 100 c-1 55 3
129 8 165 9 66 5 98 -6 42 -4 -18 -11 -32 -16 -32 -5 0 -7 -13 -3 -28 3 -16 1
-39 -4 -53 -9 -20 -10 -18 -6 16 4 33 0 27 -19 -30 -14 -38 -25 -63 -26 -55
-1 8 -8 2 -15 -15 -9 -21 -11 -63 -8 -150 5 -114 3 -125 -27 -220 -18 -55 -43
-136 -57 -180 -16 -50 -40 -100 -66 -133 -46 -61 -466 -462 -483 -462 -6 0
-64 25 -128 55 -64 30 -167 79 -228 108 -112 53 -113 54 -190 149 l-77 96 19
71 18 72 -29 33 c-37 43 -95 72 -113 57 -11 -9 -21 17 -51 124 -21 75 -35 138
-32 141 3 3 8 -8 12 -25 11 -52 25 -45 25 13 0 109 42 378 75 476 14 45 15 45
10 8 -3 -21 -8 -55 -11 -75 -12 -71 5 -28 25 63 11 50 33 126 50 169 31 79 35
121 5 50 -9 -21 -28 -50 -44 -65 -31 -29 -73 -108 -116 -219 -15 -40 -30 -69
-32 -63 -2 6 2 21 9 34 13 25 20 148 7 124 -5 -8 -13 -39 -18 -68 -19 -108
-65 -298 -72 -298 -12 0 -10 88 1 92 6 2 17 39 26 83 9 44 30 123 47 175 17
52 31 101 33 109 2 16 63 71 78 71 5 0 -10 -21 -32 -47 -23 -25 -39 -48 -36
-51 3 -3 12 3 20 14 20 27 18 16 -10 -54 -14 -34 -25 -67 -24 -74 0 -7 13 19
28 57 39 100 46 110 130 208 42 48 78 93 80 100 2 7 22 31 44 54 22 24 38 45
35 48 -9 10 -168 -167 -161 -179 3 -6 3 -8 -2 -4 -4 4 -32 -15 -62 -42 -30
-28 -59 -50 -65 -50 -5 0 26 42 69 93 97 113 143 172 143 183 0 4 10 18 22 31
12 13 19 25 16 28 -8 9 -170 -184 -163 -194 3 -5 0 -13 -6 -17 -8 -5 -9 -3 -4
7 4 8 -6 1 -23 -15 -31 -29 -44 -55 -20 -40 7 4 8 3 4 -5 -4 -6 -11 -9 -16 -6
-4 3 -13 -2 -20 -10 -7 -8 -9 -15 -6 -15 4 0 -2 -14 -14 -31 -34 -47 -34 -27
-1 30 17 28 27 51 22 51 -12 0 -89 -158 -96 -195 -5 -29 -5 -29 5 -5 12 28 39
60 51 60 4 0 -2 -24 -14 -52 -11 -29 -35 -111 -53 -183 -34 -136 -45 -127 -19
14 9 45 13 86 10 91 -3 6 -1 10 5 10 7 0 9 10 6 28 -4 15 0 48 8 75 8 26 11
47 6 47 -15 0 -55 -178 -62 -280 l-3 -35 -19 34 c-14 26 -17 45 -12 85 11 82
21 81 19 -2 l-2 -77 10 90 c6 49 21 121 34 160 13 38 22 72 20 74 -2 2 -18
-25 -34 -60 -35 -76 -39 -72 -10 12 29 83 134 255 246 404 21 27 32 46 26 42
-16 -10 -118 -144 -163 -214 -18 -29 -36 -50 -40 -48 -12 7 -73 -60 -153 -167
-39 -53 -75 -94 -80 -91 -5 3 -4 10 2 16 6 6 11 15 11 20 0 5 -40 -33 -89 -84
-84 -88 -90 -93 -107 -77 -16 16 -15 19 19 66 20 27 44 55 52 62 8 7 15 17 15
23 0 6 -14 -2 -32 -19 l-32 -29 19 30 c10 17 29 45 41 64 25 37 24 58 0 25
-33 -43 -93 -151 -99 -175 -4 -15 -16 -29 -27 -32 -26 -7 -22 9 30 113 52 104
102 177 145 213 20 16 34 32 31 35 -3 3 -33 -19 -67 -48 -74 -65 -63 -36 23
55 33 36 56 65 50 65 -6 0 -48 -41 -94 -91 -46 -50 -118 -118 -161 -152 -43
-34 -73 -63 -67 -65 9 -3 -31 -42 -44 -42 -6 0 91 151 150 233 30 41 71 72 83
61 2 -2 -29 -38 -68 -81 -39 -43 -71 -82 -71 -88 0 -5 19 13 42 40 85 102 183
193 213 200 17 4 39 11 50 16 17 8 15 9 -7 4 -23 -4 -26 -2 -21 12 6 14 1 13
-24 -5 -17 -12 -42 -22 -55 -22 -22 1 -22 1 5 16 28 15 34 24 18 24 -5 0 -23
-11 -39 -25 -29 -24 -35 -25 -173 -25 -91 1 -162 6 -194 15 -27 7 -48 14 -45
15 99 26 196 47 206 43 12 -4 105 38 134 61 8 7 40 23 70 35 30 13 76 36 103
52 65 40 76 36 32 -12 -20 -22 -34 -43 -31 -47 4 -3 11 -1 17 5 6 6 26 9 44 6
41 -7 169 21 248 53 32 12 89 46 127 73 72 53 110 71 52 25 -17 -14 -37 -35
-43 -47 -6 -12 13 1 42 30 63 60 262 204 332 240 27 13 47 27 44 29 -7 7 -59
-20 -116 -59 -32 -22 -45 -26 -51 -17 -6 9 -9 9 -15 0 -12 -19 -287 -220 -302
-220 -14 0 55 65 186 176 l133 113 62 4 61 3 -72 2 c-39 1 -75 7 -78 12 -3 6
-5 10 -3 10 2 0 30 11 63 25 58 24 59 25 25 25 -34 1 -207 43 -217 54 -3 3 57
3 133 1 l139 -4 -126 9 c-134 9 -247 32 -264 54 -6 7 -20 16 -33 20 -12 4 -43
23 -67 42 -50 38 -65 43 -44 17 13 -16 12 -17 -4 -4 -9 8 -15 16 -13 19 3 3
-15 27 -40 55 -54 60 -50 74 7 23 46 -42 268 -191 274 -184 3 2 -42 34 -98 71
-126 82 -233 170 -252 208 -14 26 -11 25 48 -19 77 -59 169 -90 288 -99 73 -5
92 -10 100 -25 5 -10 6 -18 2 -18 -26 0 -257 31 -264 36 -5 3 -9 1 -9 -3 0
-12 40 -34 50 -28 5 3 60 0 122 -6 107 -11 115 -14 158 -48 51 -41 90 -64 96
-58 3 2 -16 26 -41 53 -26 27 -58 66 -72 87 -14 20 -27 37 -29 37 -12 0 2 -23
46 -79 28 -34 42 -58 32 -52 -10 5 -32 27 -48 48 -35 46 -69 107 -55 98 6 -3
11 -1 11 6 0 7 6 5 14 -6 7 -10 23 -20 36 -22 19 -3 15 5 -24 49 -26 28 -45
57 -42 64 3 7 -2 18 -10 25 -12 10 -13 6 -9 -25 9 -54 -9 -44 -38 22 -47 108
-45 113 22 47 36 -35 56 -62 50 -66 -13 -8 62 -62 123 -88 24 -10 67 -24 96
-31 51 -12 54 -14 78 -68 13 -30 26 -53 29 -50 2 2 -20 61 -51 130 -54 125
-105 291 -92 303 7 7 164 -124 186 -156 7 -10 11 -23 8 -28 -7 -10 53 -106 61
-97 3 3 31 -18 62 -46 31 -28 79 -69 108 -90 33 -25 50 -45 46 -54 -3 -8 -10
-14 -17 -14 -27 0 -129 87 -120 102 6 9 -66 101 -74 94 -3 -3 12 -24 32 -46
20 -22 36 -43 36 -48 -1 -14 -82 84 -127 155 -54 84 -72 91 -22 8 65 -107 207
-258 262 -278 8 -3 3 -15 -14 -33 -55 -63 -100 -124 -90 -124 5 0 31 27 57 60
26 33 49 58 51 56 3 -3 -13 -31 -35 -63 -45 -66 -65 -103 -57 -103 3 0 35 46
72 103 37 56 80 119 96 140 16 21 27 40 24 43 -3 3 -18 -13 -33 -35 -15 -23
-29 -39 -32 -36 -3 2 1 12 9 21 11 14 12 18 1 22 -38 13 -249 202 -225 202 6
0 16 -7 23 -15 7 -8 17 -15 22 -15 6 0 -13 21 -41 46 -62 55 -61 71 1 21 41
-34 161 -97 183 -97 6 0 34 -24 62 -52 65 -67 63 -59 102 -458 7 -74 8 -78 10
-30 0 30 -6 116 -14 190 -27 253 -24 238 -69 281 -23 21 -35 39 -27 39 8 0 34
-20 58 -45 24 -25 43 -41 43 -36 0 5 -7 14 -15 21 -8 7 -15 17 -15 22 0 19 19
-3 50 -58 17 -31 34 -54 37 -51 2 3 -7 22 -21 43 -14 21 -24 39 -22 41 9 9 40
-13 61 -46 43 -62 27 -16 -20 60 l-45 73 1 200 c0 244 1 226 -11 226 -7 0 -11
-54 -11 -152z m-229 -115 c109 -68 117 -74 129 -106 15 -38 2 -33 -49 18 -41
41 -71 60 -54 34 17 -29 -83 43 -134 95 -56 58 -56 59 -17 36 22 -13 78 -48
125 -77z m115 -138 c17 -14 24 -25 17 -25 -7 0 -29 16 -50 36 -40 38 -16 31
33 -11z m-427 10 c7 -14 12 -28 12 -30 0 -4 -86 19 -122 34 -16 6 -28 13 -28
16 0 3 29 5 63 5 59 0 65 -2 75 -25z m545 -30 c26 -45 20 -64 -7 -22 -16 25
-30 67 -23 67 3 0 17 -20 30 -45z m-27 -30 c10 -8 14 -15 8 -15 -5 0 -19 7
-30 15 -10 8 -14 15 -8 15 5 0 19 -7 30 -15z m-1510 -74 c-8 -12 113 -93 180
-121 91 -40 154 -59 212 -64 l57 -6 -65 14 c-88 19 -199 63 -287 114 -81 47
-105 72 -46 47 21 -9 54 -23 74 -30 20 -7 55 -25 78 -40 23 -14 52 -30 64 -35
12 -4 39 -15 60 -24 71 -31 37 -7 -48 33 -47 22 -85 44 -85 50 0 7 53 11 158
11 152 0 159 -1 195 -26 38 -25 261 -104 297 -104 35 0 30 -17 -12 -36 -23
-10 -55 -17 -72 -15 -41 4 -145 44 -199 76 -59 34 -73 32 -17 -3 43 -27 144
-72 161 -72 4 0 20 -5 35 -10 l27 -11 -39 -26 c-74 -50 -309 -252 -333 -286
-9 -12 25 14 74 57 50 43 117 97 150 121 74 52 195 120 194 108 0 -4 -34 -35
-76 -68 -42 -33 -122 -104 -178 -158 l-103 -97 -101 -25 c-110 -28 -141 -31
-141 -14 0 6 -8 8 -17 5 -10 -3 -2 7 17 24 19 16 40 30 45 30 6 0 -3 -11 -20
-25 -16 -13 -27 -24 -22 -25 12 0 148 93 142 98 -2 3 -23 -7 -46 -22 -50 -33
-63 -27 -20 9 17 15 31 32 31 38 0 6 -12 -1 -27 -15 -16 -14 -34 -23 -41 -21
-7 3 -18 0 -26 -6 -14 -12 -146 -3 -146 10 0 4 10 15 22 23 12 9 19 16 15 16
-4 0 -21 -10 -37 -21 l-29 -22 -83 26 c-141 44 -139 52 16 52 74 0 132 -3 129
-7 -2 -5 31 -8 74 -8 77 0 189 22 208 41 12 12 9 12 -49 -6 -66 -20 -212 -32
-202 -17 4 7 22 12 39 13 24 0 27 2 14 8 -18 6 -18 7 0 22 10 9 35 26 56 38
40 24 51 39 15 20 -44 -23 2 21 86 83 59 44 84 57 100 52 13 -4 17 -3 11 3 -5
5 -48 17 -95 27 -161 32 -255 72 -348 146 -39 32 -50 45 -40 51 17 11 20 11
14 0z m1394 -102 c-7 -11 -14 -18 -17 -15 -3 3 0 12 7 21 18 21 23 19 10 -6z
m-1040 -106 c0 -5 -33 -27 -73 -50 -39 -24 -83 -51 -97 -60 -55 -40 -3 11 63
62 65 49 107 68 107 48z m60 -10 c0 -11 -199 -149 -288 -199 -78 -45 -107 -54
-100 -31 9 25 342 236 376 237 6 0 12 -3 12 -7z m420 -46 c0 -5 -6 -7 -13 -4
-7 3 -24 -1 -38 -9 -36 -20 -48 -16 -19 6 25 19 70 24 70 7z m20 -82 c0 -2
-10 -9 -22 -15 -22 -11 -22 -10 -4 4 21 17 26 19 26 11z m-662 -64 c-31 -29
-74 -49 -84 -39 -2 3 22 21 53 41 32 19 60 34 61 32 2 -2 -11 -17 -30 -34z
m67 -151 c-3 -5 -11 -10 -16 -10 -6 0 -7 5 -4 10 3 6 11 10 16 10 6 0 7 -4 4
-10z m270 0 c-3 -5 -11 -10 -16 -10 -6 0 -7 5 -4 10 3 6 11 10 16 10 6 0 7 -4
4 -10z m-392 -6 c20 -4 37 -10 37 -13 0 -6 -79 -49 -144 -79 l-29 -13 28 48
c15 26 30 51 32 56 5 9 26 9 76 1z m2072 -55 c10 -30 0 -33 -13 -4 -6 14 -7
25 -2 25 5 0 12 -9 15 -21z m-103 -59 c60 -77 134 -236 174 -375 20 -71 39
-137 41 -145 14 -50 -31 51 -58 128 -18 50 -34 90 -37 88 -2 -3 3 -24 11 -48
28 -79 28 -83 11 -53 -29 51 -194 443 -194 462 0 8 2 5 52 -57z m153 -170 c4
-12 12 -17 21 -13 10 4 22 -12 41 -53 14 -33 26 -67 25 -76 0 -10 3 -18 9 -18
5 0 27 -37 50 -82 36 -74 37 -79 12 -49 -84 103 -146 194 -188 273 l-46 90 35
-27 c19 -15 38 -35 41 -45z m-2199 -9 c-16 -18 -66 -35 -66 -22 1 16 19 33 46
40 37 10 42 6 20 -18z m2134 -145 c22 -56 134 -260 198 -359 24 -38 42 -70 40
-72 -7 -7 -215 174 -221 192 -2 10 -12 36 -22 57 l-17 39 54 -47 c29 -27 68
-70 87 -97 19 -27 36 -47 39 -45 2 3 -8 21 -24 41 -15 20 -47 73 -72 118 -43
82 -48 86 -18 14 16 -37 16 -38 -3 -27 -25 13 -52 50 -45 62 7 11 -16 159 -28
178 -6 11 -7 6 -3 -15 10 -45 25 -138 25 -155 0 -12 -2 -12 -14 0 -21 22 -46
138 -46 211 l0 64 26 -55 c14 -30 34 -77 44 -104z m-1828 34 c-42 -68 -73
-140 -65 -153 3 -6 1 -7 -5 -3 -7 4 -12 5 -12 2 0 -2 -3 -12 -7 -22 -4 -12 -3
-15 5 -10 7 4 12 5 12 2 0 -2 3 -13 6 -23 4 -13 3 -15 -4 -5 -7 11 -12 6 -21
-19 -8 -23 -8 -35 -1 -37 6 -2 3 -16 -8 -35 -11 -18 -27 -59 -37 -92 -17 -60
-44 -105 -32 -55 4 13 14 60 24 105 9 44 23 86 30 93 15 16 18 36 3 27 -17
-10 -12 4 34 102 25 51 40 91 35 87 -13 -8 -79 -143 -79 -161 0 -7 -5 -13 -12
-13 -6 0 -35 -19 -62 -42 -35 -29 -45 -35 -33 -18 9 14 25 36 34 50 76 110
214 282 222 275 2 -3 -10 -27 -27 -55z m198 -55 c-13 -14 -26 -23 -28 -20 -3
2 6 15 19 29 13 14 26 23 28 20 2 -2 -6 -15 -19 -29z m-589 -89 c-54 -98 -65
-99 -20 -3 25 54 47 83 65 87 1 0 -19 -38 -45 -84z m596 -3 c-6 -16 -17 -32
-24 -38 -6 -5 -25 -56 -43 -112 -30 -100 -48 -136 -35 -70 13 67 47 156 75
201 33 51 46 60 27 19z m1537 -48 c14 -38 24 -71 22 -72 -2 -2 -13 4 -24 14
-15 13 -23 35 -28 78 -3 33 -4 58 -1 55 3 -3 17 -37 31 -75z m-1974 -40 c-6
-15 -33 -54 -62 -86 -43 -50 -53 -57 -61 -43 -7 12 2 28 41 68 27 28 58 61 68
73 22 28 28 24 14 -12z m-391 -11 c-13 -7 -26 -10 -28 -8 -8 7 33 33 43 27 5
-3 -2 -12 -15 -19z m449 -21 c-8 -10 -30 -46 -48 -81 -18 -34 -35 -61 -36 -59
-9 9 36 111 61 137 30 31 49 33 23 3z m20 -16 c-19 -16 -51 -68 -45 -73 2 -3
14 10 26 28 18 26 21 28 16 9 -6 -20 -75 -134 -91 -150 -8 -9 18 50 34 76 8
12 11 27 7 33 -4 6 8 34 26 62 18 28 35 46 37 39 2 -7 -2 -18 -10 -24z m1915
-1 c12 -9 17 -27 17 -57 l0 -44 -19 28 -18 28 -44 -73 -44 -73 -3 57 c-3 50 1
61 29 102 34 48 52 55 82 32z m131 -90 c8 -25 13 -46 11 -46 -6 0 -62 96 -69
118 -7 22 -7 22 18 -2 15 -13 32 -44 40 -70z m-2340 33 c37 -29 52 -63 76
-168 25 -115 25 -133 -3 -168 -18 -22 -21 -35 -16 -63 l6 -35 3 40 c2 39 3 39
10 10 7 -29 8 -29 9 10 1 30 4 36 11 25 22 -33 4 -263 -22 -297 -12 -15 -18
-84 -7 -77 5 3 9 12 9 20 0 8 4 14 9 14 4 0 11 -35 15 -77 4 -43 8 -87 9 -98
1 -14 -10 -26 -40 -41 -23 -12 -40 -24 -37 -26 2 -3 -7 -13 -21 -22 -18 -12
-42 -16 -78 -14 l-52 3 -2 55 c-7 137 -33 168 -33 39 0 -91 10 -107 65 -110
29 -1 29 -1 5 -8 -14 -5 -33 -4 -42 1 -12 5 -18 5 -18 -2 0 -11 16 -13 65 -10
l30 2 -50 -51 c-27 -28 -45 -51 -41 -51 5 0 3 -7 -4 -15 -10 -12 -10 -19 -1
-28 9 -9 17 -5 36 18 13 17 23 35 21 40 -5 15 65 96 86 98 9 2 36 22 59 45 24
23 48 42 54 42 5 0 -13 -20 -40 -46 -28 -25 -45 -44 -38 -42 7 2 43 32 80 69
37 36 105 94 151 129 81 62 83 63 120 52 20 -6 60 -27 89 -46 29 -19 75 -47
103 -62 55 -30 59 -43 34 -104 -13 -33 -14 -33 -9 -5 3 17 8 38 12 49 3 11 1
16 -5 12 -11 -6 -31 -113 -36 -186 l-3 -45 -60 -3 -61 -3 -5 43 c-3 32 0 50
14 70 l18 26 -45 23 c-48 23 -64 43 -46 61 8 8 6 15 -4 25 -12 13 -17 13 -32
1 -15 -12 -16 -11 -3 5 9 12 10 17 2 17 -7 0 -9 5 -6 10 3 5 11 10 16 10 6 0
8 -4 5 -9 -3 -5 5 -8 19 -8 20 0 24 4 23 23 -3 29 1 28 -43 7 -21 -10 -34 -22
-31 -30 3 -7 0 -15 -6 -19 -7 -4 -5 -10 6 -16 9 -5 21 -6 26 -3 6 3 10 2 10
-4 0 -5 -6 -12 -12 -14 -10 -4 -10 -8 -1 -14 8 -5 -12 -33 -62 -88 -67 -72
-74 -77 -75 -54 0 41 28 111 58 143 l27 29 -26 -17 c-29 -18 -67 -95 -77 -155
l-6 -36 -13 40 -13 40 4 -35 c2 -19 7 -43 11 -52 11 -28 -38 -23 -91 8 -25 15
-47 24 -49 22 -3 -3 6 -11 20 -18 29 -16 32 -27 8 -33 -10 -3 104 -5 254 -6
149 0 282 -5 295 -10 24 -9 24 -11 26 -174 l2 -165 -53 -46 c-28 -25 -65 -57
-81 -71 -15 -14 -30 -24 -33 -21 -3 2 -7 23 -10 46 -5 39 -3 44 38 86 34 34
51 44 79 45 l35 2 -38 6 c-36 6 -40 10 -63 66 -23 58 -23 61 -6 85 35 48 34
55 -2 18 -29 -29 -45 -37 -88 -43 -76 -9 -88 -14 -81 -31 4 -11 9 -12 16 -5
16 16 31 13 18 -2 -6 -8 -7 -17 -3 -22 4 -4 -3 -2 -16 4 -12 7 -27 9 -33 5
-14 -8 -8 48 6 58 6 5 6 11 -2 19 -8 8 -18 7 -39 -6 -18 -10 -22 -11 -11 -2 9
8 17 17 17 21 0 10 -35 7 -47 -5 -8 -8 -17 -8 -31 0 -11 6 -27 11 -34 11 -7
-1 -2 -7 11 -14 l24 -13 -22 -13 c-13 -6 -20 -14 -18 -17 10 -9 62 -11 73 -2
8 7 11 4 10 -8 -1 -13 5 -17 22 -15 18 3 22 -1 21 -25 0 -15 -6 -50 -12 -78
-10 -39 -19 -54 -47 -71 -19 -12 -45 -32 -58 -43 -12 -12 -25 -21 -29 -21 -8
0 -51 -47 -64 -71 -16 -31 -4 -34 19 -5 11 15 24 26 30 26 5 0 17 10 26 22 9
13 14 16 10 8 -7 -12 -5 -13 8 -3 8 7 18 10 21 7 4 -4 19 6 35 22 16 16 41 37
55 47 24 16 27 24 27 77 0 33 3 60 6 60 3 0 14 -10 24 -22 15 -19 21 -21 31
-11 11 11 10 13 -2 13 -8 1 -2 11 16 25 17 14 30 30 30 36 0 6 10 18 22 26 23
15 27 3 9 -26 -7 -11 -5 -13 10 -8 10 4 -8 -17 -41 -47 -33 -31 -56 -55 -51
-56 4 0 31 20 58 45 42 38 53 43 66 33 13 -11 11 -14 -9 -19 -13 -4 -20 -7
-15 -8 5 -1 3 -8 -4 -16 -17 -20 -1 -19 24 2 12 10 1 -4 -24 -30 -53 -56 -47
-62 12 -10 l42 38 -36 -45 c-20 -25 -39 -57 -43 -71 -8 -32 18 -99 38 -99 8 0
31 17 51 38 32 32 36 33 28 12 -39 -99 -87 -183 -151 -264 -34 -42 -40 -56
-16 -36 10 9 7 -4 -9 -39 -30 -66 -43 -80 -20 -22 13 32 14 46 6 49 -8 2 -6
15 8 42 24 47 25 62 3 35 l-16 -20 8 20 c4 11 9 38 11 60 4 39 4 39 -16 -14
-11 -30 -22 -56 -25 -59 -2 -3 -2 26 0 64 l5 69 -14 -70 c-33 -171 -37 -182
-71 -223 -19 -22 -55 -52 -80 -66 -25 -15 -45 -31 -45 -37 0 -5 11 -2 25 7 37
24 42 10 6 -15 -16 -12 -39 -36 -50 -54 -17 -27 -33 -36 -110 -59 -90 -28
-124 -28 -114 -2 3 8 9 11 15 8 5 -3 16 2 23 12 10 13 14 15 15 5 0 -19 30 6
30 25 0 8 7 14 15 14 8 0 15 9 15 20 0 17 7 20 41 20 24 0 38 4 34 10 -3 6
-22 10 -41 10 -25 0 -34 4 -35 18 0 14 -2 14 -9 -3 -5 -11 -9 -14 -9 -6 -1 7
-7 11 -16 7 -16 -6 -79 43 -96 76 -7 14 -5 26 8 49 17 29 17 31 0 44 -17 12
-16 15 10 46 15 19 20 28 10 20 -31 -24 -19 10 18 52 32 37 34 38 38 15 4 -23
4 -23 6 2 1 14 6 32 12 40 9 12 10 12 5 -3 -3 -10 -8 -51 -11 -90 l-4 -72 9
55 c6 30 17 96 25 145 8 50 18 101 21 115 4 20 3 22 -5 10 -15 -21 -14 -2 4
55 17 58 12 71 -9 24 l-16 -34 6 35 c4 19 15 58 26 85 22 56 30 98 18 93 -12
-5 -90 -77 -90 -84 0 -4 17 6 37 22 42 32 37 20 -20 -49 -42 -51 -48 -51 -61
8 -6 27 -5 28 7 13 22 -28 29 -21 13 11 -9 16 -16 45 -18 65 -2 39 -17 61 -19
29 -1 -10 -5 -2 -10 17 -6 26 -7 18 -3 -30 5 -74 39 -210 60 -237 12 -15 12
-13 0 17 -14 35 -13 36 29 84 l44 49 -14 -49 c-18 -63 -55 -275 -50 -284 2 -4
-9 -20 -26 -36 l-30 -29 11 29 c15 41 4 45 -14 5 l-15 -34 6 45 c3 25 11 74
19 109 8 35 12 66 10 68 -4 5 -35 -95 -37 -119 -2 -33 -18 51 -29 149 -6 60
-15 109 -21 111 -5 2 -10 25 -11 50 -1 35 -2 39 -5 16 -2 -18 0 -63 5 -100 5
-38 8 -71 7 -72 -6 -7 -67 192 -76 247 -7 45 -5 59 12 93 11 22 18 42 15 45
-2 3 -12 -10 -22 -29 -9 -18 -19 -28 -21 -21 -3 7 8 33 22 58 28 47 39 58 28
28 -15 -42 12 1 32 52 26 64 19 73 -14 15 -12 -22 -27 -42 -32 -46 -12 -7 1
21 38 79 14 22 23 41 20 43 -2 2 -28 -34 -57 -81 -29 -47 -55 -85 -56 -85 -2
0 -4 16 -4 35 0 25 4 35 16 35 22 0 13 36 -51 200 -29 74 -55 151 -59 170 -6
35 -6 35 5 5 33 -96 42 -116 45 -112 3 2 -1 17 -7 33 -6 16 -15 48 -19 71 -6
38 -4 45 22 70 21 20 28 23 28 11 0 -9 -7 -18 -15 -22 -8 -3 -15 -11 -15 -17
0 -9 4 -8 14 0 11 10 17 8 26 -6 10 -15 10 -14 5 10 -5 26 9 39 18 15 2 -7 2
-3 1 9 -2 12 0 25 6 28 5 3 10 -1 10 -9 0 -8 4 -17 9 -20 5 -3 1 22 -8 56 -12
46 -17 56 -20 38 l-4 -25 -8 25 -7 25 -1 -28 c-1 -16 -14 -42 -33 -63 l-33
-36 -12 38 -11 39 -2 -45 -2 -45 -10 46 c-8 37 -5 66 16 159 14 62 30 116 34
119 17 11 33 51 26 64 -5 9 -4 9 5 1 10 -9 10 -17 2 -32 -6 -11 -11 -27 -10
-34 0 -7 9 5 19 27 22 48 24 59 8 49 -8 -5 -9 -2 -5 10 4 10 3 15 -3 11 -12
-7 -13 5 -2 21 4 7 34 28 67 48 33 21 76 48 95 62 l35 25 3 -97 c2 -75 -1
-101 -12 -112 -21 -22 -49 -8 -41 20 7 23 7 23 -10 3 -16 -20 -16 -20 -12 0 2
11 -2 26 -9 33 -11 10 -16 6 -27 -20 -24 -57 -39 -109 -34 -114 3 -3 12 18 21
48 14 48 35 93 36 76 0 -3 -7 -34 -16 -68 -8 -34 -13 -64 -10 -67 2 -3 8 11
11 31 4 20 11 36 17 36 5 0 6 6 2 13 -4 6 5 1 19 -12 15 -14 27 -29 27 -34 0
-5 -9 1 -19 14 l-19 24 -7 -27 c-4 -15 -5 -33 -2 -40 3 -7 6 -2 7 12 l2 25 7
-23 c11 -43 -4 -178 -22 -197 -18 -18 -14 -35 8 -35 21 0 51 -57 74 -139 11
-40 25 -78 30 -85 5 -6 15 -30 22 -53 13 -45 52 -82 65 -61 4 6 -4 20 -19 32
-26 21 -74 126 -58 126 5 0 12 -6 14 -12 2 -7 3 -1 1 14 -2 15 -6 57 -10 93
-4 35 -13 70 -20 76 -10 8 -14 8 -14 1 0 -6 5 -14 10 -17 6 -3 10 -29 10 -57
0 -65 -6 -59 -18 17 -12 72 -7 89 18 75 28 -15 37 -12 14 4 -17 13 -18 25 -15
120 3 102 2 106 -20 114 -14 6 -18 11 -11 16 6 4 20 1 32 -6 15 -10 20 -24 21
-63 l2 -50 11 70 c7 39 20 85 30 104 10 18 12 30 6 26 -9 -5 -10 -1 -5 15 4
14 3 20 -3 16 -5 -3 -15 -26 -21 -51 -12 -50 -17 -53 -37 -27 -18 24 -18 72 1
72 19 0 32 25 40 80 6 42 5 47 -24 68 -17 12 -31 28 -31 34 0 6 8 4 18 -5 31
-28 37 -19 8 12 l-27 28 27 22 c33 26 35 26 68 0z m60 2 c9 -16 15 -61 9 -61
-5 0 -17 18 -29 39 -20 36 -20 38 -2 33 10 -2 20 -7 22 -11z m139 4 c-3 -9 -8
-14 -10 -11 -3 3 -2 9 2 15 9 16 15 13 8 -4z m-58 -111 c-15 -49 -29 -96 -32
-104 -4 -8 -12 9 -19 39 -9 41 -10 60 -1 80 10 24 68 83 75 76 2 -2 -9 -43
-23 -91z m2073 54 c13 -15 13 -21 -1 -50 -24 -53 -31 -82 -17 -73 19 11 -15
-47 -40 -70 -18 -17 -50 -75 -50 -93 0 -13 76 85 92 117 15 33 16 34 17 11 1
-35 -31 -84 -134 -205 -82 -95 -125 -129 -142 -111 -4 3 6 55 20 114 15 59 34
149 42 201 8 52 17 96 20 99 3 3 5 -36 5 -86 0 -50 5 -103 10 -118 8 -19 8
-30 0 -38 -14 -14 -13 -39 3 -34 6 3 14 24 17 48 5 45 25 65 33 33 3 -10 5 22
6 71 1 92 8 113 12 38 2 -27 8 -42 16 -42 16 0 17 12 2 27 -16 16 -2 63 18 63
15 0 15 2 -2 13 -17 13 -16 17 16 70 19 30 36 50 38 44 2 -7 10 -20 19 -29z
m-1837 -30 c16 -32 22 -63 23 -123 1 -59 7 -89 21 -112 21 -35 43 -46 25 -13
-8 15 -6 41 10 106 11 47 25 93 31 102 8 14 9 12 4 -8 -41 -168 -40 -161 -12
-272 15 -57 29 -113 33 -125 5 -19 2 -23 -14 -23 -38 0 -248 246 -258 301 l-7
34 22 -23 c12 -12 20 -26 17 -31 -3 -5 9 -22 28 -39 18 -16 36 -35 39 -43 4
-9 6 -7 6 6 1 11 -11 34 -25 50 -14 17 -22 24 -18 16 5 -9 3 -12 -4 -7 -7 4
-12 14 -12 22 0 9 -7 22 -15 30 -8 9 -15 21 -15 27 0 8 4 7 12 -1 17 -17 28
-15 28 7 0 29 24 32 37 5 9 -19 8 -27 -4 -40 -14 -13 -11 -18 21 -50 27 -26
36 -43 36 -68 0 -19 6 -39 14 -45 13 -11 14 -5 11 35 -3 38 -10 52 -35 73 -29
24 -31 30 -25 63 4 21 11 35 16 32 16 -10 9 9 -21 56 -27 42 -29 51 -19 74 17
36 25 33 50 -16z m-211 -5 c-11 -17 -11 -17 -6 0 3 10 6 24 7 30 0 9 2 9 5 0
3 -7 0 -20 -6 -30z m103 -15 c-1 -29 -2 -55 -3 -58 0 -3 -7 9 -14 25 -11 25
-11 35 1 58 7 15 15 27 16 27 1 0 1 -24 0 -52z m251 -60 c-3 -72 -2 -76 6 -35
11 60 25 78 17 22 -3 -22 -9 -71 -13 -108 -4 -37 -11 -70 -17 -74 -7 -4 -8 13
-5 48 4 30 3 74 -2 97 -6 36 4 132 15 132 2 0 1 -37 -1 -82z m-568 22 c-3 -8
-7 -30 -11 -47 -11 -53 -25 -38 -25 27 0 58 1 60 20 48 11 -7 18 -20 16 -28z
m2031 -91 c-15 -84 -23 -113 -25 -90 -3 33 36 227 44 219 2 -3 -6 -60 -19
-129z m-1830 99 c-3 -8 -6 -5 -6 6 -1 11 2 17 5 13 3 -3 4 -12 1 -19z m183
-15 c12 -20 15 -31 7 -25 -15 13 -47 6 -59 -12 -5 -7 -8 -6 -8 2 0 12 30 72
36 72 1 0 12 -17 24 -37z m1879 -7 c-9 -8 -10 -7 -5 7 3 10 7 24 7 30 1 7 3 4
6 -7 3 -10 -1 -23 -8 -30z m-2045 -18 c-19 -56 -11 -58 20 -6 l26 43 0 -53 c0
-75 16 -106 119 -222 50 -56 91 -106 91 -110 0 -3 -19 -17 -42 -30 -60 -32
-77 -48 -71 -69 3 -13 -13 -26 -71 -54 l-76 -37 0 -54 c0 -58 -7 -86 -21 -86
-21 0 -29 91 -29 318 0 232 1 244 21 271 12 16 18 34 15 40 -8 13 14 91 25 91
5 0 2 -19 -7 -42z m85 -10 c1 -5 -3 -8 -9 -8 -5 0 -10 12 -9 28 0 24 1 25 9 7
5 -11 9 -23 9 -27z m-114 -5 c-11 -66 -16 -85 -21 -80 -6 6 15 117 22 117 3 0
2 -17 -1 -37z m342 -80 c-3 -10 -5 -4 -5 12 0 17 2 24 5 18 2 -7 2 -21 0 -30z
m-816 -4 c-9 -22 -10 -22 -10 -3 -1 11 2 24 6 27 12 12 14 0 4 -24z m826 -51
c-3 -7 -5 -2 -5 12 0 14 2 19 5 13 2 -7 2 -19 0 -25z m0 -40 c-3 -8 -6 -5 -6
6 -1 11 2 17 5 13 3 -3 4 -12 1 -19z m-597 -37 c17 -32 12 -105 -11 -160 -12
-28 -26 -51 -31 -51 -12 0 -7 198 5 218 12 17 25 15 37 -7z m644 -230 c9 -28
16 -52 16 -55 0 -13 -28 -5 -34 10 -7 17 -8 94 -2 94 2 0 11 -22 20 -49z m108
-66 c58 -40 60 -48 28 -165 -16 -58 -30 -112 -30 -120 0 -8 -10 -26 -21 -40
-23 -29 -23 -25 6 72 10 31 15 63 12 71 -3 7 -32 28 -66 45 -33 18 -63 37 -67
43 -10 17 66 119 91 119 5 0 27 -11 47 -25z m1721 -98 c9 -4 17 -12 16 -19 0
-10 -2 -10 -6 1 -3 7 -8 9 -12 4 -3 -4 -26 14 -51 42 -44 50 -44 50 -5 14 22
-20 48 -39 58 -42z m-2133 38 c13 -14 19 -25 13 -25 -6 0 -18 11 -27 25 -9 14
-15 25 -13 25 2 0 14 -11 27 -25z m1820 -19 c0 -12 -5 -7 -19 24 -11 24 -11
24 3 6 9 -11 16 -24 16 -30z m-225 -292 c-20 -97 -40 -185 -44 -196 -8 -21
-206 -168 -227 -168 -18 0 -18 11 1 36 24 32 17 41 -9 9 -22 -27 -26 -28 -50
-17 l-27 12 26 43 c14 23 41 72 60 108 19 37 41 69 50 73 9 3 13 11 10 16 -4
6 1 22 10 36 9 15 31 51 47 83 17 31 60 93 94 137 35 45 69 95 76 110 12 27
13 25 16 -39 2 -47 -8 -118 -33 -243z m242 76 l0 -55 -7 65 c-4 36 -7 94 -7
130 l0 65 7 -75 c4 -41 7 -100 7 -130z m-58 91 c3 -77 -5 -61 -13 24 -3 40 -2
61 3 50 4 -10 9 -44 10 -74z m-2152 17 c-2 -13 -4 -3 -4 22 0 25 2 35 4 23 2
-13 2 -33 0 -45z m2573 22 c-1 -15 -29 -71 -30 -58 0 4 5 19 10 34 9 21 7 31
-7 47 -18 19 -17 20 5 6 12 -8 22 -21 22 -29z m-39 5 c15 10 10 -1 -6 -15 -13
-11 -15 -8 -14 16 1 17 3 22 6 11 2 -9 9 -15 14 -12z m-1711 -131 c0 -8 -4
-12 -10 -9 -5 3 -10 13 -10 21 0 8 5 12 10 9 6 -3 10 -13 10 -21z m-253 -2 c7
-5 9 -13 3 -21 -7 -12 -11 -12 -24 2 -9 8 -16 18 -16 21 0 8 23 7 37 -2z m290
-14 c-3 -8 -6 -5 -6 6 -1 11 2 17 5 13 3 -3 4 -12 1 -19z m20 -20 c-3 -8 -6
-5 -6 6 -1 11 2 17 5 13 3 -3 4 -12 1 -19z m914 -5 c-8 -15 -10 -15 -11 -2 0
17 10 32 18 25 2 -3 -1 -13 -7 -23z m709 6 c0 8 2 12 5 9 3 -3 -4 -25 -15 -49
-11 -24 -18 -33 -14 -19 3 14 5 36 5 50 -1 20 1 22 9 10 8 -12 10 -13 10 -1z
m-1984 -36 c-18 -33 -21 -26 -6 13 6 15 13 24 16 21 3 -3 -1 -18 -10 -34z m44
17 c0 -5 -4 -10 -10 -10 -5 0 -10 5 -10 10 0 6 5 10 10 10 6 0 10 -4 10 -10z
m-10 -28 c0 -5 -7 -17 -15 -28 -14 -18 -14 -17 -4 9 12 27 19 34 19 19z m360
-2 c0 -5 -4 -10 -10 -10 -5 0 -10 5 -10 10 0 6 5 10 10 10 6 0 10 -4 10 -10z
m837 -27 c-3 -10 -5 -4 -5 12 0 17 2 24 5 18 2 -7 2 -21 0 -30z m-20 -30 c-3
-10 -5 -2 -5 17 0 19 2 27 5 18 2 -10 2 -26 0 -35z m-1721 -1 c-17 -16 -18
-16 -5 5 7 12 15 20 18 17 3 -2 -3 -12 -13 -22z m384 13 c0 -8 -7 -15 -15 -15
-26 0 -18 20 13 29 1 1 2 -6 2 -14z m162 -7 c-7 -7 -12 -8 -12 -2 0 6 3 14 7
17 3 4 9 5 12 2 2 -3 -1 -11 -7 -17z m-57 2 c-3 -5 -12 -10 -18 -10 -7 0 -6 4
3 10 19 12 23 12 15 0z m1969 -24 c-3 -15 -8 -25 -11 -23 -2 3 -1 17 3 31 3
15 8 25 11 23 2 -3 1 -17 -3 -31z m-797 -78 c-2 -18 -4 -4 -4 32 0 36 2 50 4
33 2 -18 2 -48 0 -65z m-1787 51 c-7 -11 -14 -18 -17 -15 -3 3 0 12 7 21 18
21 23 19 10 -6z m1807 -26 c-3 -10 -5 -2 -5 17 0 19 2 27 5 18 2 -10 2 -26 0
-35z m-652 7 c4 -6 11 -7 17 -4 6 4 8 2 4 -4 -3 -6 4 -18 16 -26 12 -9 20 -17
17 -20 -2 -2 -26 16 -54 41 -27 25 -40 40 -28 34 12 -6 25 -16 28 -21z m612
-62 c-2 -18 -4 -4 -4 32 0 36 2 50 4 33 2 -18 2 -48 0 -65z m-552 34 c-3 -3
-11 0 -18 7 -9 10 -8 11 6 5 10 -3 15 -9 12 -12z m492 -49 c-3 -10 -5 -2 -5
17 0 19 2 27 5 18 2 -10 2 -26 0 -35z m-437 27 c12 -8 11 -10 -7 -10 -13 0
-23 5 -23 10 0 13 11 13 30 0z m417 -97 c-2 -21 -4 -4 -4 37 0 41 2 58 4 38 2
-21 2 -55 0 -75z m-317 35 c0 -5 -10 -2 -23 7 -13 8 -26 12 -29 9 -4 -3 -12 4
-18 16 l-12 22 41 -23 c23 -12 41 -26 41 -31z m-119 25 c13 -16 12 -17 -3 -4
-17 13 -22 21 -14 21 2 0 10 -8 17 -17z m137 -115 c93 -90 113 -118 27 -38
-39 36 -77 73 -86 82 -9 10 -18 16 -20 13 -3 -2 -11 5 -18 17 -12 19 -12 19 9
5 11 -8 51 -44 88 -79z m47 61 c-6 -9 -55 10 -55 22 0 4 13 3 30 -2 16 -6 28
-15 25 -20z m175 15 c0 -8 -5 -12 -10 -9 -6 4 -8 11 -5 16 9 14 15 11 15 -7z
m-930 -18 c0 -2 -8 -10 -17 -17 -16 -13 -17 -12 -4 4 13 16 21 21 21 13z m841
-42 c12 -16 12 -17 -1 -9 -8 4 -22 14 -31 22 -9 8 -20 13 -25 12 -18 -3 -25 1
-19 11 7 12 55 -11 76 -36z m914 -25 c20 -34 34 -63 32 -66 -5 -5 -77 107 -77
119 0 18 11 5 45 -53z m-860 9 c35 -16 31 -29 -5 -15 -16 6 -30 15 -30 19 0
11 4 10 35 -4z m-408 -10 c18 -7 33 -15 33 -20 0 -4 8 -5 18 -2 15 5 15 5 0
-5 -12 -8 -26 -5 -60 14 -47 27 -44 32 9 13z m478 -28 c8 -13 -5 -13 -25 0
-13 8 -13 10 2 10 9 0 20 -4 23 -10z m-380 -10 c3 -6 -1 -7 -9 -4 -18 7 -21
14 -7 14 6 0 13 -4 16 -10z m-5 -26 c0 -2 -9 0 -20 6 -11 6 -20 13 -20 16 0 2
9 0 20 -6 11 -6 20 -13 20 -16z m448 7 c17 -7 32 -17 32 -22 0 -5 -18 0 -40
11 -22 11 -40 23 -40 26 0 3 3 4 8 2 4 -3 22 -10 40 -17z m-343 -65 c6 -4 -5
-1 -22 8 -18 9 -33 21 -33 27 0 6 -4 8 -8 5 -5 -3 -9 2 -9 10 0 10 10 6 31
-13 17 -15 36 -32 41 -37z m150 14 c3 -6 -1 -7 -9 -4 -18 7 -21 14 -7 14 6 0
13 -4 16 -10z m-965 -15 c-7 -8 -17 -15 -22 -15 -6 0 -5 7 2 15 7 8 17 15 22
15 6 0 5 -7 -2 -15z m2085 -15 c-10 -11 -22 -20 -28 -20 -5 0 1 9 14 20 31 25
37 25 14 0z m-559 -148 c-6 -5 -50 92 -60 130 -3 12 10 -10 29 -51 19 -41 33
-76 31 -79z m-1592 113 c-9 -14 -19 -24 -21 -21 -6 6 20 46 30 46 4 0 0 -11
-9 -25z m1792 -12 c-18 -33 -21 -26 -6 13 6 15 13 24 16 21 3 -3 -1 -18 -10
-34z m-1411 -9 c-8 -16 -15 -23 -15 -16 0 13 22 53 27 48 2 -2 -3 -16 -12 -32z
m44 2 c9 -11 9 -16 -1 -22 -7 -4 -10 -4 -6 1 4 4 3 14 -3 22 -6 7 -9 13 -6 13
2 0 10 -6 16 -14z m1395 -37 c-24 -27 -29 -16 -8 16 10 16 20 23 22 16 2 -7
-4 -21 -14 -32z m-874 3 c3 -2 -16 -2 -42 0 l-47 5 4 -116 4 -116 -9 100 c-5
55 -11 110 -13 123 -4 21 -2 22 47 16 28 -4 53 -9 56 -12z m-539 -9 c13 -16
12 -17 -3 -4 -17 13 -22 21 -14 21 2 0 10 -8 17 -17z m99 -42 l25 -24 -33 22
c-17 12 -37 32 -43 44 -10 22 -10 22 8 2 10 -11 29 -31 43 -44z m500 44 c11
-13 8 -15 -21 -14 -24 1 -27 3 -11 6 12 2 20 9 17 14 -10 15 1 10 15 -6z
m-1366 -169 c1 -39 -3 -61 -11 -63 -10 -4 -13 23 -12 114 1 113 2 116 12 63 6
-30 11 -82 11 -114z m133 122 c-3 -7 -5 -2 -5 12 0 14 2 19 5 13 2 -7 2 -19 0
-25z m1170 26 c-3 -3 -12 -4 -19 -1 -8 3 -5 6 6 6 11 1 17 -2 13 -5z m-472
-29 c39 -32 28 -32 -15 0 -19 14 -30 25 -24 25 5 0 23 -11 39 -25z m871 -132
c-7 -7 -56 101 -56 121 0 12 14 -10 30 -48 16 -38 28 -71 26 -73z m-2391 97
c10 -11 16 -20 13 -20 -3 0 -13 9 -23 20 -10 11 -16 20 -13 20 3 0 13 -9 23
-20z m1375 -8 c0 -5 -7 -9 -15 -9 -8 0 -12 4 -9 9 3 4 9 8 15 8 5 0 9 -4 9 -8z
m656 -10 c-10 -2 -22 0 -28 6 -6 6 0 7 19 4 21 -5 23 -7 9 -10z m-582 -20 c6
-3 16 -7 21 -8 6 -1 33 -12 60 -23 28 -12 39 -19 25 -16 -14 3 -37 8 -52 11
-16 4 -28 11 -28 16 0 5 -4 7 -9 3 -5 -3 -13 0 -16 6 -4 5 -14 8 -22 5 -9 -4
-11 -2 -7 6 5 7 2 9 -9 5 -9 -3 -18 0 -21 8 -4 11 0 12 21 4 14 -5 31 -13 37
-17z m198 -14 c-11 -11 -42 0 -42 15 0 7 4 7 12 -1 21 -21 32 -13 12 11 l-19
22 23 -19 c12 -11 19 -23 14 -28z m-1777 22 c-3 -5 -12 -10 -18 -10 -7 0 -6 4
3 10 19 12 23 12 15 0z m2238 3 c-7 -2 -21 -2 -30 0 -10 3 -4 5 12 5 17 0 24
-2 18 -5z m96 -19 c10 -9 -45 -3 -59 6 -11 7 -5 8 20 4 19 -4 37 -8 39 -10z
m-2369 1 c0 -2 -10 -9 -22 -15 -22 -11 -22 -10 -4 4 21 17 26 19 26 11z m706
-10 c-11 -8 -27 -15 -36 -15 -9 0 -20 -4 -26 -10 -5 -5 -15 -6 -24 0 -11 7 -7
10 16 15 16 4 40 11 54 15 35 12 37 11 16 -5z m1129 -14 c-3 -6 -11 -11 -16
-11 -5 0 -4 6 3 14 14 16 24 13 13 -3z m408 -11 c17 -14 47 -61 47 -75 0 -3
-6 0 -14 7 -8 7 -14 15 -13 18 1 13 -16 39 -23 35 -4 -2 -16 5 -26 16 -21 24
-2 23 29 -1z m-377 -12 c-9 -5 -22 -7 -29 -4 -7 2 -4 5 6 5 10 1 15 5 12 11
-4 6 1 7 11 3 15 -6 15 -7 0 -15z m-1261 2 c3 -6 -1 -7 -9 -4 -18 7 -21 14 -7
14 6 0 13 -4 16 -10z m1175 -10 c8 -5 11 -10 5 -10 -5 0 -17 5 -25 10 -8 5
-10 10 -5 10 6 0 17 -5 25 -10z m-1895 -10 c-3 -5 -12 -10 -18 -10 -7 0 -6 4
3 10 19 12 23 12 15 0z m2035 -16 c0 -2 -8 0 -19 5 -10 6 -22 7 -26 3 -5 -4
-5 -1 -1 6 5 9 12 9 27 2 10 -6 19 -13 19 -16z m-1390 6 c0 -5 -7 -7 -15 -4
-8 4 -15 2 -15 -4 0 -5 -9 -12 -20 -15 -27 -7 -25 6 3 19 29 15 47 16 47 4z
m265 -46 c-24 -37 -29 -23 -9 22 13 29 18 34 21 21 3 -10 -3 -29 -12 -43z
m1045 46 c13 -9 13 -10 0 -10 -8 0 -22 5 -30 10 -13 9 -13 10 0 10 8 0 22 -5
30 -10z m60 -20 c8 -5 11 -10 5 -10 -5 0 -17 5 -25 10 -8 5 -10 10 -5 10 6 0
17 -5 25 -10z m51 -17 c13 -16 12 -17 -3 -4 -10 7 -18 15 -18 17 0 8 8 3 21
-13z m-2081 -13 c0 -5 -5 -10 -11 -10 -5 0 -7 5 -4 10 3 6 8 10 11 10 2 0 4
-4 4 -10z m990 7 c0 -2 -9 -12 -20 -22 -17 -16 -20 -16 -20 -2 0 8 8 18 18 20
9 3 18 5 20 6 1 0 2 -1 2 -2z m1537 -69 c-2 -13 -4 -3 -4 22 0 25 2 35 4 23 2
-13 2 -33 0 -45z m-2600 10 c-3 -7 -5 -2 -5 12 0 14 2 19 5 13 2 -7 2 -19 0
-25z m34 -14 c-5 -16 -10 -21 -10 -12 -1 18 10 51 15 45 2 -1 -1 -16 -5 -33z
m404 16 c-10 -11 -22 -20 -28 -20 -5 0 1 9 14 20 31 25 37 25 14 0z m565 -31
c-7 -24 -13 -77 -13 -117 l-1 -72 -38 38 -38 38 17 49 c14 44 71 121 81 111 2
-2 -2 -24 -8 -47z m35 15 c-23 -23 -28 -13 -8 16 10 14 18 19 21 12 2 -7 -4
-19 -13 -28z m3545 16 c18 -12 2 -12 -25 0 -13 6 -15 9 -5 9 8 0 22 -4 30 -9z
m-3510 -21 c-7 -11 -14 -18 -17 -15 -3 3 0 12 7 21 18 21 23 19 10 -6z m-1089
-60 c-5 -30 -9 -42 -10 -28 -1 30 10 92 15 86 3 -2 0 -28 -5 -58z m2464 51 c3
-5 2 -10 -4 -10 -5 0 -13 5 -16 10 -3 6 -2 10 4 10 5 0 13 -4 16 -10z m-2085
-14 c0 -2 -7 -7 -16 -10 -8 -3 -12 -2 -9 4 6 10 25 14 25 6z m2187 -43 c-3 -3
-14 0 -24 7 -16 10 -16 11 0 6 12 -4 17 1 18 17 2 21 2 21 6 -1 3 -13 2 -26 0
-29z m2142 18 c-6 -2 -18 4 -27 13 -15 15 -15 15 10 4 15 -7 23 -15 17 -17z
m-4672 -3 c-3 -8 -6 -5 -6 6 -1 11 2 17 5 13 3 -3 4 -12 1 -19z m1023 15 c0
-5 11 -21 25 -37 35 -41 31 -48 -5 -8 -16 17 -34 32 -40 32 -5 0 -10 5 -10 10
0 6 7 10 15 10 8 0 15 -3 15 -7z m1455 -3 c3 -6 -1 -7 -9 -4 -18 7 -21 14 -7
14 6 0 13 -4 16 -10z m2070 -16 c-26 -20 -55 -36 -55 -30 0 5 63 46 70 46 3
-1 -4 -8 -15 -16z m87 -1 c-1 -4 7 -17 16 -28 17 -20 17 -20 -4 -2 -11 9 -21
24 -21 32 0 8 2 13 5 11 2 -2 4 -8 4 -13z m-2042 -40 c0 -32 -5 -28 -14 10 -4
19 -3 26 4 22 5 -3 10 -18 10 -32z m2121 20 c13 -16 12 -17 -3 -4 -17 13 -22
21 -14 21 2 0 10 -8 17 -17z m-3710 -49 c-6 -28 -9 -32 -10 -14 -1 30 11 79
16 64 2 -6 -1 -28 -6 -50z m435 9 c-5 -11 -10 -13 -17 -6 -7 7 -7 17 3 32 10
18 14 19 16 6 2 -9 1 -23 -2 -32z m-416 -18 c-6 -30 -8 -33 -9 -13 -1 25 8 62
14 56 2 -2 -1 -21 -5 -43z m1189 -27 c1 -40 0 -70 -2 -68 -9 11 -17 140 -9
140 5 0 10 -32 11 -72z m-1168 -23 c-9 -36 -18 -57 -20 -48 -5 24 19 124 28
119 4 -3 0 -34 -8 -71z m391 31 c12 -17 -3 -34 -43 -50 -22 -9 -42 -16 -45
-16 -9 0 4 31 29 67 21 32 35 31 59 -1z m222 -36 c6 -8 1 -6 -12 4 -13 11 -22
30 -21 45 1 26 1 26 11 -4 6 -16 16 -37 22 -45z m-591 -10 c-8 -36 -17 -67
-20 -70 -8 -7 7 88 18 118 17 44 18 19 2 -48z m3272 60 c-3 -5 -12 -10 -18
-10 -7 0 -6 4 3 10 19 12 23 12 15 0z m367 -4 c7 4 8 2 4 -5 -4 -6 0 -23 8
-36 9 -14 14 -25 11 -25 -8 0 -45 63 -44 75 0 6 3 4 6 -3 2 -6 10 -9 15 -6z
m-4755 -28 c-3 -7 -5 -2 -5 12 0 14 2 19 5 13 2 -7 2 -19 0 -25z m1173 22 c12
-8 12 -13 -3 -42 -12 -23 -16 -26 -13 -10 2 12 0 22 -5 22 -5 0 -9 -9 -9 -19
0 -11 -4 -23 -10 -26 -13 -8 -13 -1 2 46 12 42 15 44 38 29z m1290 -15 c19
-14 29 -25 23 -25 -6 0 -16 7 -23 15 -7 8 -18 15 -26 15 -7 0 -16 5 -19 10
-11 18 10 11 45 -15z m1980 21 c0 -11 -19 -15 -25 -6 -3 5 1 10 9 10 9 0 16
-2 16 -4z m-52 -34 c-13 -8 -53 -37 -90 -64 -94 -67 -86 -52 10 19 42 32 79
61 80 66 2 4 8 4 14 1 5 -3 -1 -13 -14 -22z m-3175 -2 c-3 -11 -9 -20 -14 -20
-5 0 -9 9 -9 20 0 11 6 20 14 20 9 0 12 -7 9 -20z m-993 -10 c-19 -11 -42 -19
-50 -19 -8 0 3 9 25 19 53 24 70 24 25 0z m2370 -5 c0 -14 -4 -25 -9 -25 -5 0
-7 9 -4 19 4 14 -1 21 -19 24 -21 4 -20 4 5 6 23 1 27 -3 27 -24z m-1533 -17
c-3 -7 -5 -2 -5 12 0 14 2 19 5 13 2 -7 2 -19 0 -25z m309 -6 c-18 -16 -18
-16 -6 6 6 13 14 21 18 18 3 -4 -2 -14 -12 -24z m1181 12 c-3 -3 -12 -4 -19
-1 -8 3 -5 6 6 6 11 1 17 -2 13 -5z m-2530 -41 c-3 -10 -5 -4 -5 12 0 17 2 24
5 18 2 -7 2 -21 0 -30z m138 27 c3 -6 -1 -7 -9 -4 -18 7 -21 14 -7 14 6 0 13
-4 16 -10z m705 -10 c0 -11 -2 -20 -4 -20 -2 0 -6 9 -9 20 -3 11 -1 20 4 20 5
0 9 -9 9 -20z m850 10 c-8 -5 -19 -10 -25 -10 -5 0 -3 5 5 10 8 5 20 10 25 10
6 0 3 -5 -5 -10z m-1586 -30 c-6 -6 -10 -3 -10 10 0 13 4 16 10 10 7 -7 7 -13
0 -20z m4681 12 c-3 -3 -11 0 -18 7 -9 10 -8 11 6 5 10 -3 15 -9 12 -12z
m-3165 -2 c0 -5 -2 -10 -4 -10 -3 0 -8 5 -11 10 -3 6 -1 10 4 10 6 0 11 -4 11
-10z m3068 3 c-10 -2 -26 -2 -35 0 -10 3 -2 5 17 5 19 0 27 -2 18 -5z m-4333
-13 c-3 -5 -12 -10 -18 -10 -7 0 -6 4 3 10 19 12 23 12 15 0z m4262 4 c-3 -3
-12 -4 -19 -1 -8 3 -5 6 6 6 11 1 17 -2 13 -5z m221 -30 c-3 -14 -5 -12 -10 9
-3 19 -2 25 4 19 6 -6 8 -18 6 -28z m-3258 21 c0 -6 -88 -45 -98 -44 -6 0 88
48 96 49 1 0 2 -2 2 -5z m-1290 -20 c0 -5 -68 -35 -79 -35 -8 1 61 39 72 40 4
0 7 -2 7 -5z m20 -8 c0 -2 -10 -12 -22 -23 l-23 -19 19 23 c18 21 26 27 26 19z
m2125 -49 c5 -5 2 -8 -6 -8 -8 0 -26 15 -39 33 l-23 32 29 -25 c16 -14 33 -28
39 -32z m-2408 17 c-7 -13 -14 -20 -15 -14 -2 5 2 16 8 24 18 21 20 18 7 -10z
m4691 8 c-10 -2 -28 -2 -40 0 -13 2 -5 4 17 4 22 1 32 -1 23 -4z m-278 -8 c0
-2 -10 -9 -22 -15 -22 -11 -22 -10 -4 4 21 17 26 19 26 11z m203 -2 c-7 -2
-19 -2 -25 0 -7 3 -2 5 12 5 14 0 19 -2 13 -5z m-4643 -7 c0 -3 -4 -8 -10 -11
-5 -3 -10 -1 -10 4 0 6 5 11 10 11 6 0 10 -2 10 -4z m164 -11 c-10 -8 -23 -15
-28 -15 -6 0 -1 7 10 15 10 8 23 15 28 15 6 0 1 -7 -10 -15z m57 -8 c-10 -9
-11 -8 -5 6 3 10 9 15 12 12 3 -3 0 -11 -7 -18z m1199 13 c-8 -5 -19 -10 -25
-10 -5 0 -3 5 5 10 8 5 20 10 25 10 6 0 3 -5 -5 -10z m1230 6 c0 -3 -4 -8 -10
-11 -5 -3 -10 -1 -10 4 0 6 5 11 10 11 6 0 10 -2 10 -4z m1947 -2 c-3 -3 -12
-4 -19 -1 -8 3 -5 6 6 6 11 1 17 -2 13 -5z m-40 -10 c-3 -3 -12 -4 -19 -1 -8
3 -5 6 6 6 11 1 17 -2 13 -5z"/>
<path d="M1648 3673 c23 -2 61 -2 85 0 23 2 4 4 -43 4 -47 0 -66 -2 -42 -4z"/>
<path d="M1910 3636 c149 -58 204 -76 223 -76 12 0 -18 14 -66 30 -48 17 -101
37 -117 45 -16 8 -39 15 -52 15 -18 -1 -16 -4 12 -14z"/>
<path d="M1780 3474 c-120 -70 -141 -90 -35 -33 135 73 161 89 145 89 -8 0
-58 -25 -110 -56z"/>
<path d="M1969 3469 c-37 -34 -78 -60 -129 -81 -111 -45 -239 -77 -187 -47 9
6 25 12 35 14 53 10 219 101 208 113 -3 3 -12 -1 -21 -8 -9 -7 -18 -10 -21 -7
-3 3 8 13 25 22 17 8 31 20 31 25 0 5 -42 -17 -92 -49 -51 -31 -124 -75 -161
-97 -37 -21 -63 -40 -57 -42 20 -7 161 30 225 59 36 16 69 28 73 27 5 -2 39
25 76 60 37 34 63 62 58 62 -6 0 -34 -23 -63 -51z m-119 -24 c0 -2 -19 -14
-42 -26 -46 -23 -46 -17 -1 12 29 18 43 23 43 14z"/>
<path d="M1961 3425 c-27 -25 -53 -44 -57 -43 -5 2 -9 0 -9 -4 0 -19 -78 -84
-102 -86 -41 -4 -141 -30 -119 -31 11 -1 49 4 85 10 61 11 71 16 131 73 36 34
83 76 105 94 22 18 34 32 27 32 -7 0 -35 -20 -61 -45z"/>
<path d="M1418 3263 c6 -2 18 -2 25 0 6 3 1 5 -13 5 -14 0 -19 -2 -12 -5z"/>
<path d="M1628 3253 c7 -3 16 -2 19 1 4 3 -2 6 -13 5 -11 0 -14 -3 -6 -6z"/>
<path d="M3531 2917 c18 -43 33 -76 35 -74 5 5 -44 129 -56 141 -6 6 4 -24 21
-67z"/>
<path d="M3663 2825 c9 -16 23 -39 32 -50 9 -11 7 -2 -6 20 -27 49 -47 72 -26
30z"/>
<path d="M3635 2470 c27 -27 51 -50 54 -50 3 0 -17 23 -44 50 -27 28 -51 50
-54 50 -3 0 17 -22 44 -50z"/>
<path d="M1631 2574 c0 -11 3 -14 6 -6 3 7 2 16 -1 19 -3 4 -6 -2 -5 -13z"/>
<path d="M1283 2070 c0 -25 2 -35 4 -22 2 12 2 32 0 45 -2 12 -4 2 -4 -23z"/>
<path d="M1310 2075 c0 -19 2 -35 4 -35 2 0 6 16 8 35 2 19 0 35 -4 35 -4 0
-8 -16 -8 -35z"/>
<path d="M1211 1954 c0 -11 3 -14 6 -6 3 7 2 16 -1 19 -3 4 -6 -2 -5 -13z"/>
<path d="M1032 1880 c24 -68 33 -90 39 -90 8 0 -23 86 -35 97 -5 4 -7 1 -4 -7z"/>
<path d="M1253 1795 c0 -64 2 -80 7 -55 l7 35 3 -30 c3 -28 3 -28 7 -5 2 14
11 30 19 37 20 15 24 44 8 60 -18 18 -34 16 -35 -4 -1 -10 -5 -2 -9 17 -5 25
-7 9 -7 -55z"/>
<path d="M1090 1813 c0 -4 5 -15 10 -23 8 -13 10 -13 10 2 0 9 -4 20 -10 23
-5 3 -10 3 -10 -2z"/>
<path d="M940 1718 c0 -3 7 -25 15 -48 8 -24 13 -51 10 -59 -3 -10 4 -22 17
-30 19 -12 20 -11 13 6 -4 10 -15 41 -24 70 -15 45 -31 78 -31 61z"/>
<path d="M1555 1554 c-16 -13 -25 -24 -20 -24 12 1 59 39 54 44 -2 2 -17 -7
-34 -20z"/>
<path d="M1323 1434 c-43 -41 -69 -71 -58 -65 21 10 154 141 143 141 -4 0 -42
-34 -85 -76z"/>
<path d="M1800 1480 c-31 -26 -32 -29 -14 -30 12 0 27 7 34 15 7 8 9 15 5 15
-4 0 -2 7 5 15 19 23 9 18 -30 -15z"/>
<path d="M1435 1469 c-20 -18 -33 -34 -30 -37 2 -3 0 -11 -6 -19 -14 -16 3
-17 19 -1 9 9 12 9 12 0 0 -7 -7 -15 -15 -18 -8 -4 -15 -10 -15 -15 0 -4 7 -6
15 -2 9 3 15 2 14 -3 -3 -18 1 -34 9 -34 5 0 7 14 4 31 -3 22 2 37 19 57 13
15 17 21 9 15 -8 -7 -18 -13 -23 -13 -4 0 -5 6 0 13 4 6 8 15 8 19 0 3 4 10 9
15 5 5 6 3 2 -4 -4 -7 -3 -13 3 -13 5 0 9 9 8 20 -1 11 -2 20 -4 20 -1 0 -18
-14 -38 -31z"/>
<path d="M1238 1401 c-24 -25 -34 -38 -23 -29 19 16 24 18 43 18 5 0 18 13 29
28 35 47 0 35 -49 -17z"/>
<path d="M1262 1290 c-37 -35 -56 -70 -45 -81 8 -8 16 -1 29 20 10 17 23 32
29 32 5 1 75 5 155 9 l145 6 -137 2 c-96 1 -137 5 -135 13 4 21 -18 20 -41 -1z"/>
<path d="M1084 1212 c1 -40 7 -76 13 -80 5 -4 13 -17 17 -29 4 -13 11 -23 16
-23 4 0 11 -16 15 -36 6 -35 50 -144 58 -144 2 0 -9 37 -25 83 -15 45 -28 96
-28 112 -1 24 -3 26 -9 11 -7 -19 -8 -19 -15 0 -4 10 -10 50 -13 87 -3 38 -9
63 -14 56 -5 -8 -9 -4 -12 12 -3 13 -5 -9 -3 -49z"/>
<path d="M1373 1243 c26 -2 67 -2 90 0 23 2 2 3 -48 3 -49 0 -68 -1 -42 -3z"/>
<path d="M1725 1090 c-3 -5 -2 -10 4 -10 5 0 13 5 16 10 3 6 2 10 -4 10 -5 0
-13 -4 -16 -10z"/>
<path d="M1703 1045 c-15 -13 -23 -25 -17 -25 6 0 21 11 34 25 30 32 19 32
-17 0z"/>
<path d="M1720 995 c-24 -25 -35 -55 -21 -55 4 0 18 11 31 25 13 14 20 25 16
25 -5 0 -3 7 4 15 21 25 -5 17 -30 -10z"/>
<path d="M1619 847 c-6 -86 -12 -118 -31 -157 -14 -28 -21 -50 -16 -50 5 0 20
24 34 54 22 49 24 65 22 158 l-3 103 -6 -108z"/>
<path d="M1547 519 c-26 -38 -43 -69 -38 -69 10 0 96 129 90 134 -2 2 -25 -27
-52 -65z"/>
<path d="M3456 2375 c-3 -9 -2 -13 4 -10 6 3 10 2 10 -4 0 -5 -7 -14 -16 -19
-12 -7 -13 -11 -5 -17 7 -4 18 1 26 11 18 24 18 29 1 43 -11 9 -15 8 -20 -4z"/>
<path d="M3445 2281 c-3 -5 -1 -12 5 -16 5 -3 10 1 10 9 0 18 -6 21 -15 7z"/>
<path d="M2977 1377 c-45 -38 -76 -89 -49 -80 10 3 -3 -15 -28 -41 -24 -25
-38 -46 -31 -46 9 0 3 -13 -14 -36 -15 -19 -25 -37 -22 -40 8 -9 58 66 51 78
-4 6 -3 8 3 5 5 -4 23 7 38 23 19 20 24 30 14 30 -11 1 -10 4 4 14 19 15 23
31 5 20 -7 -4 3 11 23 32 72 80 76 101 6 41z"/>
<path d="M2852 1138 c-29 -35 -48 -64 -42 -66 7 -3 7 -9 -1 -18 -7 -8 -7 -14
-1 -14 5 0 17 11 26 25 9 14 21 23 26 20 5 -3 11 -1 15 5 3 5 1 10 -5 10 -6 0
-2 12 9 28 18 25 37 72 29 72 -2 0 -27 -28 -56 -62z m-14 -48 c-7 -10 -14 -17
-17 -15 -4 4 18 35 25 35 2 0 -1 -9 -8 -20z"/>
<path d="M2932 4233 c2 -5 22 -46 45 -93 67 -135 129 -375 147 -569 3 -30 9
-57 12 -60 4 -3 4 29 1 71 l-7 77 36 -1 c19 -1 37 -5 40 -10 3 -4 11 -8 17 -8
7 0 1 10 -13 21 l-25 20 40 -6 c91 -15 254 -134 259 -190 2 -18 58 -85 67 -79
5 3 6 -1 4 -8 -3 -8 38 -61 96 -123 113 -122 211 -237 205 -242 -1 -2 -29 8
-61 22 -31 14 -59 24 -61 22 -4 -4 139 -67 151 -67 12 0 -34 56 -155 190 -66
74 -136 162 -153 195 -78 145 -270 295 -379 295 -46 0 -86 36 -93 84 -13 80
-58 241 -87 310 -30 73 -75 156 -84 156 -3 0 -4 -3 -2 -7z m610 -796 c20 -38
0 -26 -27 15 -24 37 -25 40 -6 23 13 -11 27 -28 33 -38z"/>
<path d="M2760 4197 c0 -13 123 -228 128 -223 3 3 -21 52 -53 108 -54 98 -75
130 -75 115z"/>
<path d="M2945 4120 c4 -14 19 -52 32 -85 28 -70 24 -35 -4 43 -20 54 -41 86
-28 42z"/>
<path d="M2360 4073 c0 -15 87 -169 124 -221 60 -82 54 -54 -7 37 -30 44 -65
105 -78 136 -21 48 -39 70 -39 48z"/>
<path d="M2355 3990 c31 -91 94 -220 107 -220 6 0 3 11 -6 25 -20 31 -20 35 2
36 11 1 8 4 -8 8 -20 6 -32 25 -66 109 -49 123 -63 143 -29 42z"/>
<path d="M3003 4025 c4 -11 16 -56 27 -100 20 -74 30 -101 30 -79 0 22 -44
180 -52 189 -7 7 -8 3 -5 -10z"/>
<path d="M2931 3988 c-1 -4 11 -33 27 -64 l27 -56 6 38 c6 34 6 33 4 -10 -1
-28 4 -65 12 -83 64 -155 61 -168 -7 -36 -24 46 -45 81 -48 78 -6 -6 86 -185
108 -210 38 -44 59 -183 64 -426 2 -81 6 -151 10 -158 4 -6 4 -21 1 -34 -5
-15 -4 -19 3 -12 14 12 42 225 41 303 0 31 -4 66 -9 77 -5 13 -9 -25 -10 -105
-3 -224 -15 -245 -23 -40 -8 233 -24 327 -77 465 -23 61 -43 126 -44 145 -1
19 -3 52 -4 73 -2 29 -6 37 -21 37 -15 0 -18 -5 -14 -22 4 -21 3 -21 -9 -6 -7
9 -18 25 -25 35 -6 10 -12 15 -12 11z"/>
<path d="M2140 3913 c0 -5 11 -20 25 -33 13 -12 22 -26 20 -30 -6 -10 43 -55
51 -47 4 4 36 -14 72 -39 35 -25 66 -43 68 -41 2 2 -24 24 -58 48 -35 24 -89
68 -120 98 -32 30 -58 50 -58 44z m96 -94 c3 -6 -5 -3 -20 6 -14 10 -26 19
-26 22 0 7 39 -17 46 -28z"/>
<path d="M2650 3875 c0 -6 34 -42 75 -81 73 -69 76 -70 90 -51 8 12 12 23 9
26 -3 3 -9 -1 -14 -9 -10 -16 -17 -11 -112 79 -27 25 -48 41 -48 36z"/>
<path d="M2212 3788 c37 -35 91 -75 120 -90 34 -18 46 -28 33 -29 -11 0 -15
-3 -8 -5 6 -3 42 4 80 15 37 11 95 25 128 32 33 7 52 14 43 16 -10 3 -53 -3
-95 -11 -155 -31 -155 -31 -293 77 l-75 59 67 -64z"/>
<path d="M1890 3785 c0 -5 96 -55 153 -78 67 -28 39 -8 -53 38 -90 45 -100 49
-100 40z"/>
<path d="M2848 3530 c-3 -165 -6 -190 -26 -230 -24 -51 -30 -41 -7 13 17 42
18 47 7 47 -4 0 -18 -32 -31 -71 -13 -40 -45 -121 -72 -180 -27 -60 -49 -114
-49 -119 0 -6 -9 -29 -20 -50 -11 -22 -17 -40 -12 -40 4 0 35 54 67 121 33 66
63 123 66 125 17 10 -12 -71 -49 -137 -22 -41 -63 -119 -92 -174 -29 -55 -58
-107 -65 -115 -6 -8 -40 -69 -75 -135 -71 -135 -114 -204 -159 -255 l-31 -35
25 58 c14 33 45 89 69 125 56 86 109 193 130 261 19 64 19 64 6 56 -5 -3 -10
-14 -10 -23 0 -37 -135 -311 -147 -299 -3 3 7 25 20 49 32 54 130 299 123 306
-6 5 -9 -2 -72 -160 -21 -54 -39 -96 -40 -95 -2 2 46 167 80 277 6 17 5 22 -2
15 -5 -5 -31 -76 -56 -157 -26 -82 -51 -148 -56 -148 -6 0 -10 -5 -10 -11 0
-5 4 -8 9 -4 12 7 -34 -144 -48 -158 -5 -5 -17 -7 -25 -4 -14 6 -14 10 0 44 9
21 27 52 40 70 25 33 31 48 14 38 -13 -8 -13 -8 10 54 12 29 19 55 17 57 -4 4
-57 -126 -57 -139 0 -4 -16 -32 -35 -62 -34 -53 -34 -54 -67 -44 -18 6 -38 11
-44 12 -30 2 33 292 86 399 17 33 28 63 25 66 -2 3 -7 -3 -11 -12 -3 -9 -14
-16 -23 -16 -23 0 -106 -99 -93 -112 9 -9 39 24 68 76 21 39 36 29 16 -10 -23
-48 -88 -219 -98 -257 -3 -15 -8 -26 -11 -24 -8 9 29 153 48 186 11 18 18 35
15 38 -14 15 -87 -153 -130 -302 -31 -106 -36 -114 -30 -55 8 84 42 212 65
243 11 15 17 32 14 37 -4 6 -1 9 7 8 15 -3 18 21 3 25 -5 1 -28 -28 -50 -65
-22 -37 -41 -66 -42 -64 -7 6 49 184 74 236 14 30 25 61 24 68 -2 14 120 234
126 228 2 -1 -3 -20 -11 -42 -17 -49 -40 -183 -33 -191 4 -3 8 5 11 18 22 112
32 153 55 223 29 86 101 249 108 243 2 -2 -13 -46 -32 -97 -50 -127 -120 -401
-84 -325 7 16 8 13 4 -12 -2 -18 -1 -33 4 -33 4 0 11 26 14 58 6 49 28 120
100 318 8 22 29 68 47 103 17 35 29 66 26 69 -8 7 -77 -143 -111 -241 -15 -43
-30 -76 -32 -73 -7 7 63 199 97 266 11 22 20 46 20 55 0 23 53 98 103 145 22
22 36 40 30 40 -6 0 -41 -32 -77 -72 -36 -39 -92 -90 -124 -112 -32 -23 -59
-45 -60 -51 -1 -5 -44 -53 -96 -105 -51 -52 -110 -117 -130 -144 -48 -65 -49
-96 -2 -61 14 11 22 12 27 4 4 -8 11 -3 19 12 17 32 137 186 153 196 6 4 -4
-15 -24 -42 -47 -65 -141 -226 -136 -232 3 -2 22 24 43 59 36 61 100 157 177
266 80 113 -50 -8 -162 -151 -33 -43 -61 -82 -61 -86 0 -3 -9 -7 -20 -7 -11 0
-20 2 -20 4 0 3 23 35 50 73 68 91 202 214 252 232 14 5 11 -7 -16 -61 -18
-37 -44 -92 -57 -122 -12 -30 -33 -68 -44 -85 -12 -16 -53 -84 -90 -150 -38
-66 -74 -127 -81 -135 -17 -20 -72 -159 -95 -240 -30 -105 -21 -94 18 20 19
58 40 110 45 115 8 7 9 4 4 -10 -4 -11 -23 -74 -42 -140 -33 -112 -89 -251
-106 -261 -4 -3 -6 1 -4 8 3 7 17 63 31 123 29 120 69 244 92 288 8 16 12 31
9 34 -21 22 -146 -389 -146 -483 0 -30 17 -12 48 51 23 48 37 65 52 65 16 0
20 -7 20 -37 0 -21 3 -54 6 -73 l6 -35 -91 -24 c-50 -14 -91 -29 -91 -33 0 -4
4 -8 10 -8 5 0 19 -18 30 -40 12 -23 25 -38 30 -35 5 3 12 0 16 -6 5 -8 3 -9
-6 -4 -8 5 -11 3 -8 -6 3 -8 11 -13 17 -11 6 1 10 -3 9 -10 -2 -6 13 -22 32
-35 32 -23 42 -24 150 -21 63 2 124 7 134 12 19 9 19 9 3 -14 -20 -29 -21 -40
-4 -40 15 0 96 69 81 70 -6 0 -17 -7 -24 -16 -8 -8 -23 -20 -34 -26 -15 -7
-11 0 12 24 37 39 44 63 8 29 l-24 -23 5 44 c3 23 10 45 14 48 11 8 -13 52
-31 58 -12 4 -13 3 -2 -10 7 -9 -21 1 -61 21 -41 20 -74 37 -72 39 2 2 53 -13
85 -26 26 -10 60 -11 60 -2 0 10 -166 50 -210 50 -32 0 -32 1 -25 36 9 50 23
84 34 84 5 0 22 -5 36 -10 27 -10 27 -11 10 -38 l-18 -27 25 23 c28 25 70 29
92 7 8 -8 21 -13 28 -10 7 3 22 -1 32 -8 17 -13 17 -15 2 -45 -20 -38 -8 -41
32 -7 19 16 36 23 47 18 15 -5 16 -3 7 12 -8 15 -1 31 39 83 27 36 49 71 49
79 0 16 38 93 46 93 2 0 0 -9 -6 -19 -14 -28 -57 -169 -66 -216 -3 -22 -11
-47 -16 -55 -8 -12 -9 -12 -4 3 7 23 -7 21 -30 -5 -18 -20 -18 -21 -1 -15 13
5 16 3 10 -6 -13 -22 -12 -39 3 -33 10 4 14 -4 14 -32 1 -33 2 -35 14 -19 8
10 62 107 121 217 59 110 109 200 112 200 2 0 2 -4 -1 -9 -12 -19 -36 -171
-43 -266 -6 -94 -5 -99 11 -86 11 10 15 23 11 40 -3 14 0 33 5 41 8 11 9 7 5
-15 -5 -26 -5 -27 5 -11 11 17 108 66 131 66 6 0 8 -10 4 -22 -5 -20 -2 -18
22 9 18 21 41 34 65 39 l38 6 -15 -48 c-17 -59 -26 -66 -98 -88 -32 -10 -56
-20 -53 -23 3 -3 -6 -20 -19 -38 -14 -17 -25 -36 -25 -41 0 -5 5 -1 11 10 17
28 30 0 22 -46 -9 -62 2 -68 137 -68 105 0 120 2 151 23 19 12 34 28 34 34 0
16 23 38 31 31 3 -4 1 -17 -6 -30 l-11 -23 20 24 c25 27 28 16 5 -17 -8 -12
-10 -22 -5 -22 6 0 17 14 26 30 9 17 18 30 20 30 3 0 -7 -24 -22 -52 -35 -66
-39 -79 -18 -53 17 20 65 110 65 120 0 4 -4 3 -10 0 -6 -4 -7 2 -1 17 4 13 7
53 7 90 -1 36 2 64 6 62 4 -3 8 -2 8 1 0 3 6 38 14 78 24 123 27 145 20 171
-3 15 -11 23 -17 19 -7 -4 -8 0 -3 13 8 20 36 134 36 147 0 4 -4 7 -9 7 -4 0
-11 -19 -14 -42 -7 -54 -98 -337 -104 -322 -2 5 6 39 17 73 23 72 26 117 4 57
-8 -22 -17 -42 -21 -45 -3 -3 -3 3 1 14 4 11 23 81 42 155 20 74 38 144 41
155 3 13 2 17 -5 10 -5 -5 -24 -66 -42 -135 -18 -69 -37 -128 -43 -131 -5 -4
-13 -27 -18 -53 -10 -56 -60 -218 -65 -213 -2 2 5 54 16 117 23 127 71 298
107 379 25 58 25 81 -1 34 -20 -38 -20 -27 3 40 10 32 15 57 10 57 -8 0 -31
-68 -49 -147 -7 -29 -16 -53 -21 -53 -4 0 -6 -7 -3 -15 8 -19 -21 -103 -46
-135 l-20 -25 9 31 c5 17 18 53 30 79 24 55 25 59 10 50 -6 -4 -1 12 11 35 23
46 21 81 -5 60 -8 -6 -17 -22 -21 -33 -3 -12 -22 -47 -40 -78 -34 -57 -41 -75
-25 -65 6 4 -45 -167 -54 -181 -1 -2 -16 -6 -33 -9 l-32 -7 55 88 c50 80 62
105 51 105 -2 0 -18 -25 -35 -55 -17 -30 -33 -55 -35 -55 -3 0 19 51 48 113
54 112 92 215 84 223 -3 2 -19 -34 -37 -81 -35 -91 -163 -367 -168 -362 -2 2
4 51 12 108 15 109 35 169 87 272 68 135 110 286 107 385 -2 32 -3 37 -6 17
-2 -16 -8 -39 -13 -50 -5 -11 -26 -84 -45 -162 -20 -78 -48 -170 -64 -205 -16
-35 -32 -72 -35 -82 -4 -10 -8 -17 -11 -15 -6 6 14 96 37 167 11 35 18 66 15
69 -7 6 -57 -151 -57 -178 0 -25 -63 -176 -67 -162 -2 6 17 73 42 148 41 127
45 146 45 239 0 129 21 331 31 296 l7 -25 1 25 c0 14 -6 70 -14 125 -8 55 -15
147 -16 205 -2 184 -16 164 -21 -30z m-425 -76 c-6 -15 -52 -39 -60 -31 -3 4
56 46 64 47 1 0 0 -7 -4 -16z m452 -149 c-9 -57 -25 -262 -26 -346 0 -46 -4
-102 -9 -124 -10 -54 -116 -398 -130 -425 -6 -12 -9 -24 -6 -27 2 -3 30 44 60
103 59 116 64 115 43 -16 -12 -73 -12 -74 -47 -83 -78 -18 -80 -18 -68 11 20
51 27 83 17 77 -14 -9 -11 17 11 86 82 255 88 282 94 414 3 72 8 144 11 160 5
25 4 27 -5 10 -5 -11 -16 -94 -24 -185 -13 -151 -19 -181 -70 -344 -31 -98
-58 -182 -62 -185 -8 -8 3 57 26 149 31 125 49 224 65 347 28 213 70 383 95
383 6 0 10 19 11 43 1 41 1 41 10 12 5 -16 7 -43 4 -60z m-89 -121 c-4 -14 -9
-24 -12 -21 -3 2 -2 17 2 31 3 15 9 25 11 22 3 -3 2 -17 -1 -32z m-469 -96
c-3 -8 -6 -5 -6 6 -1 11 2 17 5 13 3 -3 4 -12 1 -19z m668 -103 c-9 -36 -19
-64 -21 -62 -3 2 4 34 13 70 10 36 19 64 22 62 2 -3 -4 -34 -14 -70z m-279
-66 c-47 -70 -74 -96 -38 -36 10 17 32 56 48 86 19 36 30 49 32 37 2 -10 -17
-49 -42 -87z m25 -55 c-10 -79 -40 -157 -113 -299 -109 -210 -125 -225 -52
-50 59 145 62 155 16 62 -21 -43 -53 -123 -71 -177 -32 -100 -56 -141 -45 -78
11 58 65 211 100 280 19 38 35 71 35 75 1 5 5 16 10 26 6 11 6 17 0 17 -5 0
-12 -8 -15 -17 -3 -10 -17 -31 -31 -48 l-26 -30 16 32 c8 18 14 34 13 35 -4 5
165 248 169 244 2 -2 -1 -34 -6 -72z m322 -129 c-9 -19 -18 -33 -21 -31 -4 5
26 66 33 66 3 0 -3 -16 -12 -35z m-371 -137 c-12 -51 -26 -126 -32 -165 -14
-87 -25 -97 -16 -15 8 64 58 284 64 277 2 -2 -5 -46 -16 -97z m333 42 c-4 -12
-9 -19 -12 -17 -3 3 -2 15 2 27 4 12 9 19 12 17 3 -3 2 -15 -2 -27z m-480 -70
c-24 -46 -75 -216 -79 -264 -3 -45 -25 -98 -26 -64 0 24 19 112 42 193 19 70
68 179 75 171 3 -2 -3 -18 -12 -36z m449 -14 c-14 -41 -14 -50 -3 -57 10 -6
20 -1 32 14 13 15 17 17 14 5 -3 -9 -9 -33 -13 -52 -5 -30 -11 -36 -31 -36
-23 0 -23 1 -9 22 18 25 21 42 6 33 -5 -3 -10 0 -10 7 -1 13 -39 -89 -40 -104
0 -5 9 1 20 12 21 21 50 27 50 10 0 -6 -9 -29 -21 -51 -23 -47 -19 -65 6 -22
l16 28 -6 -30 c-4 -16 -7 -31 -8 -31 -1 -1 -24 -5 -50 -8 l-48 -7 20 40 c12
22 18 46 15 54 -5 13 14 82 52 185 22 58 28 48 8 -12z m-874 -70 c-9 -43 -17
-63 -26 -59 -9 3 -7 20 9 68 12 36 23 63 25 60 2 -2 -1 -33 -8 -69z m1079 19
c-16 -54 -32 -61 -18 -7 15 56 19 65 25 59 4 -3 0 -27 -7 -52z m-1151 -14 c-9
-38 -16 -51 -30 -51 -10 0 -18 2 -18 5 0 12 52 107 56 102 2 -2 -1 -27 -8 -56z
m117 12 c-11 -68 -15 -83 -23 -83 -5 0 -2 27 6 60 16 67 26 80 17 23z m990
-94 c-9 -52 -18 -109 -21 -127 -4 -29 -7 -32 -32 -26 -15 4 -28 7 -29 8 -1 1
18 51 42 111 24 61 44 116 45 124 0 8 2 12 5 9 3 -3 -1 -48 -10 -99z m-465 -9
c-12 -33 -25 -59 -27 -56 -3 3 5 32 18 65 13 33 25 58 28 56 2 -2 -7 -32 -19
-65z m386 -63 c-14 -60 -22 -75 -32 -64 -3 3 2 27 11 54 9 26 19 54 21 62 3 8
6 12 9 10 2 -3 -2 -31 -9 -62z m-756 19 c0 -2 -9 -2 -20 1 -11 3 -20 9 -20 15
0 5 9 4 20 -2 11 -6 20 -12 20 -14z m436 4 c-28 -11 -52 -18 -54 -15 -6 6 60
33 83 34 11 0 -2 -9 -29 -19z m244 -80 c0 -5 -9 -10 -20 -10 -11 0 -20 5 -20
10 0 6 9 10 20 10 11 0 20 -4 20 -10z m155 -22 c-4 -18 -12 -37 -17 -43 -7 -7
-8 -2 -3 15 3 14 9 33 11 43 9 30 16 18 9 -15z m-1105 3 c-8 -5 -37 -11 -65
-14 l-50 -6 40 14 c46 15 100 20 75 6z m785 -28 c-27 -14 -58 -32 -68 -41 -29
-26 -29 -7 1 20 15 15 43 31 62 36 57 16 58 13 5 -15z m252 11 c-3 -3 -12 -4
-19 -1 -8 3 -5 6 6 6 11 1 17 -2 13 -5z m-1028 -36 c-13 -46 14 -82 65 -86 46
-4 76 19 76 60 0 40 16 35 40 -12 11 -22 25 -40 30 -40 6 0 10 -11 10 -25 0
-30 -27 -39 -120 -38 -132 0 -172 19 -212 96 -11 22 -18 40 -16 41 15 11 88
34 110 35 25 1 26 0 17 -31z m931 4 c0 -35 -33 -72 -65 -72 -59 0 -68 73 -11
89 60 18 76 14 76 -17z m-811 4 c8 -9 8 -22 0 -44 -12 -34 -37 -47 -75 -38
-21 6 -24 12 -24 51 l0 45 44 0 c24 0 48 -6 55 -14z m877 3 c3 -6 17 -8 30 -5
31 8 30 -2 -5 -50 -35 -49 -87 -94 -109 -94 -41 -1 -188 -2 -200 -1 -9 1 -12
12 -10 34 2 19 8 31 15 30 7 -2 22 15 33 37 23 45 50 53 50 16 0 -26 41 -66
67 -66 30 0 72 40 79 75 6 35 34 49 50 24z m-1136 -19 c0 -5 -2 -10 -4 -10 -3
0 -8 5 -11 10 -3 6 -1 10 4 10 6 0 11 -4 11 -10z m1210 -47 c-11 -17 -11 -17
-6 0 3 10 7 26 7 35 1 15 2 15 6 0 2 -10 -1 -25 -7 -35z"/>
<path d="M2915 2200 c-3 -5 -1 -10 4 -10 6 0 11 5 11 10 0 6 -2 10 -4 10 -3 0
-8 -4 -11 -10z"/>
<path d="M2110 2190 c0 -5 5 -10 11 -10 5 0 7 5 4 10 -3 6 -8 10 -11 10 -2 0
-4 -4 -4 -10z"/>
<path d="M2520 3673 c-41 -14 -97 -28 -125 -33 l-50 -8 42 -1 c38 -1 233 53
233 64 0 9 -24 3 -100 -22z"/>
<path d="M2981 3625 c0 -11 7 -69 14 -130 l14 -110 -5 115 c-3 63 -9 121 -14
130 -8 12 -9 12 -9 -5z"/>
<path d="M3260 3621 c14 -3 34 -13 46 -21 26 -19 96 -114 132 -180 32 -57 173
-233 180 -225 3 3 -6 18 -20 33 -42 44 -138 166 -138 175 0 10 98 -96 121
-130 9 -14 20 -24 25 -24 5 0 24 -14 42 -31 17 -18 32 -28 32 -24 0 5 7 3 15
-4 8 -7 13 -16 10 -20 -3 -5 -1 -11 4 -14 5 -4 12 -3 15 2 3 5 -34 46 -81 93
-47 46 -105 114 -130 152 -42 64 -66 90 -42 45 l11 -21 -29 21 c-16 11 -42 40
-58 64 -53 79 -96 118 -130 117 -28 -1 -29 -2 -5 -8z"/>
<path d="M2940 3600 c0 -8 4 -30 10 -49 5 -19 10 -114 10 -213 1 -147 -2 -187
-16 -231 l-18 -52 -10 75 c-5 41 -12 66 -14 56 -2 -11 1 -52 7 -91 8 -50 9
-79 1 -99 -13 -34 -14 -69 -1 -46 12 22 113 372 108 376 -2 3 -14 -19 -26 -48
l-21 -53 4 80 c6 94 -7 265 -23 292 -8 14 -10 14 -11 3z"/>
<path d="M3251 3605 c7 -16 149 -149 149 -139 0 5 -24 32 -52 60 -67 63 -102
92 -97 79z"/>
<path d="M2770 3545 c0 -9 -14 -52 -31 -95 -17 -44 -29 -85 -27 -92 2 -6 14
16 26 49 36 99 51 153 41 153 -5 0 -9 -7 -9 -15z"/>
<path d="M3311 3489 c-2 -50 129 -301 199 -379 17 -20 7 1 -25 48 -61 92 -128
219 -156 297 -10 28 -18 43 -18 34z"/>
<path d="M2600 3467 c-38 -62 -53 -90 -43 -84 13 8 66 97 61 102 -2 2 -10 -6
-18 -18z"/>
<path d="M2647 3363 c-49 -152 -89 -236 -185 -392 -130 -209 -147 -240 -267
-482 -13 -26 -20 -51 -15 -58 5 -9 38 29 100 113 51 70 95 124 98 121 6 -5 72
148 75 174 7 54 -85 -57 -147 -178 -10 -18 -20 -31 -23 -28 -8 8 71 143 199
342 64 99 115 203 158 325 33 93 56 180 48 180 -2 0 -20 -53 -41 -117z m-233
-589 c-19 -42 -69 -123 -112 -181 -85 -117 -144 -188 -87 -105 22 30 35 59 31
68 -3 8 -2 12 4 9 5 -3 14 3 19 14 14 25 14 34 1 26 -6 -3 -7 1 -3 10 4 12 8
13 13 4 6 -8 12 -4 20 12 20 38 139 219 144 219 3 0 -11 -34 -30 -76z"/>
<path d="M3054 3418 c17 -59 27 -224 22 -342 -8 -142 -19 -208 -48 -275 -26
-60 -15 -64 12 -4 29 64 50 211 50 357 0 129 -18 286 -33 286 -5 0 -6 -10 -3
-22z"/>
<path d="M3400 3412 c0 -24 97 -157 141 -192 54 -43 170 -112 177 -105 3 3 0
5 -6 5 -6 0 -30 27 -53 60 -24 33 -45 58 -47 55 -3 -3 2 -13 10 -22 8 -10 19
-25 23 -33 6 -12 5 -12 -5 -3 -7 6 -18 9 -24 7 -26 -10 -151 123 -199 211 -9
17 -16 24 -17 17z"/>
<path d="M2470 3330 c-23 -45 -39 -84 -36 -87 2 -3 23 32 46 77 23 45 39 84
36 87 -2 3 -23 -32 -46 -77z"/>
<path d="M3210 3273 c0 -111 -11 -215 -35 -333 -4 -21 -3 -22 5 -8 6 10 16 48
23 85 l13 68 14 -75 c20 -104 16 -491 -6 -537 -15 -34 -36 -121 -38 -163 0
-14 -4 -27 -7 -30 -4 -3 -10 -20 -14 -39 -5 -26 -4 -32 6 -26 9 6 10 4 6 -8
-4 -10 -10 -25 -13 -34 -5 -15 -4 -16 6 -3 11 15 11 4 -7 -90 -2 -14 -17 -49
-33 -77 -15 -29 -25 -53 -21 -53 8 0 111 191 111 204 0 4 -4 4 -10 1 -7 -4 -7
3 0 20 13 35 13 54 -1 35 -16 -22 -2 36 20 85 20 43 81 230 81 246 0 20 -20
-2 -22 -24 -1 -12 -5 34 -8 103 l-7 125 0 -146 c0 -90 -5 -153 -12 -165 -8
-15 -11 20 -9 151 1 171 18 348 39 401 10 29 11 28 35 -41 13 -38 28 -73 33
-78 5 -5 -13 58 -41 140 -27 81 -59 201 -72 266 -13 65 -27 121 -30 124 -3 4
-6 -52 -6 -124z m33 -46 c3 -24 17 -77 30 -119 21 -65 22 -79 11 -99 -7 -13
-13 -36 -14 -51 0 -15 -4 -29 -9 -32 -9 -6 -41 217 -41 293 0 62 15 67 23 8z
m-24 -867 c-12 -33 -23 -59 -25 -57 -3 3 24 122 34 147 4 11 7 9 9 -7 3 -12
-6 -50 -18 -83z"/>
<path d="M2276 3382 c-7 -12 -240 -172 -299 -207 -52 -30 -58 -47 -8 -20 35
18 298 199 321 221 9 9 10 14 3 14 -7 0 -14 -4 -17 -8z"/>
<path d="M2751 3349 c-2 -36 -21 -89 -32 -89 -10 0 -40 -62 -105 -214 -53
-125 -33 -99 29 36 31 68 60 122 65 121 15 -3 54 111 49 143 -4 28 -4 28 -6 3z"/>
<path d="M2676 3294 c-4 -14 -38 -107 -76 -207 -73 -188 -90 -252 -27 -100 67
161 125 323 117 328 -4 3 -11 -7 -14 -21z"/>
<path d="M2487 3279 c-132 -302 -176 -415 -181 -457 -2 -13 -13 -37 -25 -53
-12 -16 -17 -29 -12 -29 13 0 89 128 141 236 110 232 129 274 121 274 -5 0
-13 -11 -18 -24 -17 -51 -177 -376 -184 -376 -9 0 52 157 126 326 31 69 54
128 51 131 -3 3 -11 -10 -19 -28z"/>
<path d="M2620 2994 c-33 -70 -59 -132 -57 -137 1 -5 31 50 65 123 35 73 60
135 58 138 -3 2 -33 -53 -66 -124z"/>
<path d="M1821 3083 c-43 -20 -78 -27 -178 -35 -77 -5 -143 -5 -176 1 -60 11
-72 7 -31 -10 16 -6 45 -18 64 -26 19 -9 64 -17 100 -19 l65 -4 -78 14 c-43 8
-81 17 -85 20 -3 3 24 6 61 6 101 0 217 19 275 45 28 13 52 26 52 29 0 9 -12
6 -69 -21z"/>
<path d="M1972 3045 c-58 -67 -191 -299 -178 -312 2 -3 19 24 37 58 54 109
110 198 156 250 25 27 40 49 35 49 -6 0 -28 -20 -50 -45z"/>
<path d="M3565 3020 c10 -11 20 -20 23 -20 3 0 -3 9 -13 20 -10 11 -20 20 -23
20 -3 0 3 -9 13 -20z"/>
<path d="M3670 3027 c0 -4 25 -37 55 -74 30 -36 53 -69 51 -72 -1 -3 15 -22
37 -41 31 -26 20 -9 -43 70 -98 124 -100 126 -100 117z"/>
<path d="M3615 2980 c10 -11 20 -20 23 -20 3 0 -3 9 -13 20 -10 11 -20 20 -23
20 -3 0 3 -9 13 -20z"/>
<path d="M1187 2983 c-15 -14 -5 -21 43 -25 49 -5 132 10 147 26 4 5 -1 6 -12
3 -43 -12 -180 -18 -165 -8 8 6 10 11 4 11 -6 0 -14 -3 -17 -7z"/>
<path d="M1623 2932 c-69 -52 -87 -81 -20 -33 65 48 103 80 92 80 -5 0 -38
-21 -72 -47z"/>
<path d="M1133 2953 c9 -2 23 -2 30 0 6 3 -1 5 -18 5 -16 0 -22 -2 -12 -5z"/>
<path d="M3650 2956 c0 -2 8 -10 18 -17 15 -13 16 -12 3 4 -13 16 -21 21 -21
13z"/>
<path d="M1073 2943 c9 -2 23 -2 30 0 6 3 -1 5 -18 5 -16 0 -22 -2 -12 -5z"/>
<path d="M1213 2943 c9 -2 23 -2 30 0 6 3 -1 5 -18 5 -16 0 -22 -2 -12 -5z"/>
<path d="M1705 2920 c-8 -13 -152 -110 -162 -110 -4 1 6 12 22 25 17 14 25 25
19 25 -5 0 -25 -16 -44 -35 -52 -54 -14 -45 84 20 83 54 118 85 98 85 -6 0
-14 -5 -17 -10z"/>
<path d="M1726 2870 c-52 -46 -190 -220 -174 -220 3 0 31 33 61 73 31 41 81
97 111 125 58 55 60 73 2 22z"/>
<path d="M3317 2886 c-4 -10 -7 -25 -6 -34 0 -11 4 -9 10 7 5 13 8 29 6 35 -2
5 -6 2 -10 -8z"/>
<path d="M1603 2807 c-35 -22 -61 -42 -59 -45 5 -5 124 67 132 80 10 16 -12 6
-73 -35z"/>
<path d="M3303 2750 c0 -41 2 -58 4 -37 2 20 2 54 0 75 -2 20 -4 3 -4 -38z"/>
<path d="M3345 2768 c-8 -28 -15 -63 -14 -77 1 -16 6 -4 14 29 7 30 17 65 20
78 4 12 5 22 2 22 -4 0 -13 -23 -22 -52z"/>
<path d="M2907 2702 c-29 -79 -77 -240 -76 -257 0 -5 24 62 54 150 55 163 71
238 22 107z"/>
<path d="M1513 2747 c-12 -20 14 -26 40 -8 l27 18 -30 0 c-17 0 -33 -4 -37
-10z"/>
<path d="M2135 2730 c-4 -6 -3 -16 3 -22 6 -6 12 -6 17 2 4 6 3 16 -3 22 -6 6
-12 6 -17 -2z"/>
<path d="M3322 2630 c0 -14 2 -19 5 -12 2 6 2 18 0 25 -3 6 -5 1 -5 -13z"/>
<path d="M3560 2387 c0 -5 11 -25 25 -45 14 -20 25 -33 25 -29 0 5 -11 25 -25
45 -14 20 -25 33 -25 29z"/>
<path d="M2412 2114 c-18 -12 -20 -19 -12 -29 9 -10 6 -19 -9 -34 -12 -12 -26
-21 -33 -21 -6 0 -9 -3 -6 -6 4 -3 20 2 37 10 33 18 57 22 28 5 -9 -6 -15 -14
-12 -20 4 -5 -2 -6 -11 -2 -13 5 -15 3 -9 -7 5 -8 4 -11 -1 -7 -6 3 -16 2 -23
-3 -11 -6 -9 -10 7 -19 18 -9 25 -8 42 9 20 20 20 20 20 0 0 -11 -6 -20 -12
-20 -9 0 -8 -4 2 -10 11 -8 9 -9 -11 -5 -17 4 -32 1 -41 -9 -9 -8 -18 -13 -22
-11 -3 3 -4 2 -1 -2 3 -3 0 -12 -6 -19 -8 -9 -5 -11 10 -7 14 4 21 1 21 -9 0
-10 -12 -15 -35 -16 -19 -1 -44 -6 -55 -12 -24 -13 -26 -2 -4 28 8 12 12 22 7
22 -10 0 -55 -69 -51 -79 2 -4 23 -25 48 -48 l46 -41 62 51 62 52 0 138 c0 75
-3 137 -8 137 -4 0 -18 -7 -30 -16z m8 -214 c-16 -10 -23 -40 -9 -40 5 0 9 8
10 18 0 11 2 13 6 4 6 -15 -34 -62 -53 -62 -7 0 -16 4 -19 10 -3 5 0 7 8 4 8
-3 19 2 26 10 10 12 7 14 -21 11 -45 -4 -73 -16 -58 -25 6 -4 -2 -7 -19 -6
-19 1 -32 7 -34 18 -5 17 12 21 23 6 3 -4 19 -1 34 8 16 8 38 12 49 8 12 -4
17 -2 13 4 -3 6 -2 13 4 17 6 4 8 9 6 13 -2 4 7 8 21 9 18 1 22 -2 13 -7z"/>
<path d="M2707 2052 c6 -24 42 -48 39 -26 -1 8 -12 21 -23 29 -19 13 -21 13
-16 -3z"/>
<path d="M2525 1740 c-3 -5 -2 -10 4 -10 5 0 13 5 16 10 3 6 2 10 -4 10 -5 0
-13 -4 -16 -10z"/>
<path d="M2687 1483 c-4 -3 -105 -5 -225 -4 -128 1 -213 -1 -207 -7 21 -19
139 -42 217 -43 67 0 78 -2 58 -11 -14 -5 -63 -8 -108 -6 -78 4 -82 4 -55 -10
15 -8 34 -21 40 -30 11 -14 14 -14 31 1 10 9 22 17 26 17 5 0 -2 -9 -15 -19
-13 -11 -21 -22 -18 -25 8 -9 69 5 69 15 0 5 -8 6 -17 3 -10 -3 41 24 112 60
72 36 123 65 114 65 -9 1 -19 -2 -22 -6z m-105 -25 c-17 -17 -207 -17 -223 0
-10 10 12 12 111 12 97 0 121 -3 112 -12z"/>
<path d="M3360 1095 c0 -10 93 -145 97 -141 2 2 -17 36 -42 75 -42 65 -55 80
-55 66z"/>
<path d="M3520 955 c0 -5 5 -17 10 -25 5 -8 10 -10 10 -5 0 6 -5 17 -10 25 -5
8 -10 11 -10 5z"/>
<path d="M3556 810 l-50 -18 -2 -83 -2 -84 9 75 c6 41 15 80 21 85 7 7 9 -5 4
-40 -13 -101 -16 -171 -7 -145 l9 25 1 -29 c2 -54 9 -22 20 89 6 60 16 114 21
119 13 13 13 -13 1 -85 -15 -87 -21 -166 -12 -144 5 11 12 49 15 85 4 36 12
87 18 113 5 26 9 49 7 51 -2 2 -26 -5 -53 -14z"/>
<path d="M2835 765 c9 -41 48 -131 52 -119 2 5 -11 41 -28 79 -16 39 -27 57
-24 40z"/>
<path d="M2866 770 c10 -40 34 -93 40 -88 2 3 -7 30 -21 59 -13 30 -22 43 -19
29z"/>
<path d="M2732 490 c0 -19 2 -27 5 -17 2 9 2 25 0 35 -3 9 -5 1 -5 -18z"/>
<path d="M3550 373 c-40 -43 -64 -83 -52 -83 5 0 17 9 27 20 10 11 14 20 10
20 -5 0 0 10 11 23 55 62 58 79 4 20z"/>
<path d="M3256 322 c-12 -23 -15 -61 -7 -106 2 -14 31 15 32 33 0 11 2 12 6 3
3 -7 -2 -24 -11 -37 -18 -28 -13 -33 11 -10 8 8 19 13 24 10 14 -9 11 2 -16
55 -14 27 -22 56 -19 64 10 27 -5 18 -20 -12z m18 -53 c-9 -15 -24 10 -17 29
5 12 7 12 15 -2 5 -9 6 -21 2 -27z"/>
<path d="M3558 344 c-5 -4 -8 -14 -8 -22 0 -8 -11 -23 -25 -34 -20 -15 -22
-22 -12 -33 8 -8 16 -10 24 -4 7 7 13 5 16 -3 6 -17 20 54 15 82 -1 12 -6 18
-10 14z m-8 -58 c0 -2 -8 -10 -17 -17 -16 -13 -17 -12 -4 4 13 16 21 21 21 13z"/>
<path d="M3025 321 c-3 -11 -12 -18 -19 -15 -9 3 -12 -5 -12 -28 0 -18 -4 -42
-8 -53 -7 -19 -7 -19 7 -2 22 27 29 20 12 -13 -9 -17 -11 -30 -5 -30 5 0 10
-8 11 -17 0 -10 9 2 20 27 20 45 21 34 4 -40 -4 -16 1 -11 15 15 16 31 19 45
10 63 -5 13 -10 34 -10 47 0 14 -5 25 -10 25 -7 0 -7 6 0 20 7 12 7 20 1 20
-5 0 -12 -9 -16 -19z m2 -63 c-3 -7 -5 -2 -5 12 0 14 2 19 5 13 2 -7 2 -19 0
-25z"/>
<path d="M3372 222 c-2 -84 0 -93 16 -90 9 2 15 11 13 19 -2 8 -4 41 -4 74 0
41 -2 52 -7 35 -6 -22 -8 -21 -12 15 -3 22 -5 -2 -6 -53z"/>
<path d="M2853 195 c0 -27 2 -38 4 -22 2 15 2 37 0 50 -2 12 -4 0 -4 -28z"/>
<path d="M2769 193 c-13 -16 -12 -17 4 -4 16 13 21 21 13 21 -2 0 -10 -8 -17
-17z"/>
<path d="M2872 170 c0 -14 2 -19 5 -12 2 6 2 18 0 25 -3 6 -5 1 -5 -13z"/>
<path d="M3180 158 c0 -16 5 -28 10 -28 13 0 13 20 0 40 -8 12 -10 9 -10 -12z"/>
</g>
</svg>
